<svg width="420" height="420" viewBox="0 0 420 420" fill="none" xmlns="http://www.w3.org/2000/svg">
<path d="M203.25 6.74978C206.978 3.02198 213.022 3.02198 216.75 6.74978L413.25 203.25C416.978 206.978 416.978 213.022 413.25 216.75L216.75 413.25C213.022 416.978 206.978 416.978 203.25 413.25L6.7498 216.75C3.022 213.022 3.022 206.978 6.7498 203.25L203.25 6.74978Z" fill="#FDD900"/>
<path fill-rule="evenodd" clip-rule="evenodd" d="M387.208 206.291L213.375 32.4577C211.511 30.5938 208.489 30.5938 206.625 32.4577L32.7916 206.291C30.9277 208.155 30.9277 211.177 32.7916 213.041L206.625 386.874C208.489 388.738 211.511 388.738 213.375 386.874L387.208 213.041C389.072 211.177 389.072 208.155 387.208 206.291ZM216.75 29.0828C213.022 25.355 206.978 25.355 203.25 29.0828L29.4167 202.916C25.6889 206.644 25.6889 212.688 29.4167 216.416L203.25 390.249C206.978 393.977 213.022 393.977 216.75 390.249L390.583 216.416C394.311 212.688 394.311 206.644 390.583 202.916L216.75 29.0828Z" fill="black"/>
<path d="M206.76 180.6C219.347 180.6 228.947 183.64 235.56 189.72C242.28 195.693 245.64 204.76 245.64 216.92V267H226.76V256.6C224.307 260.333 220.787 263.213 216.2 265.24C211.72 267.16 206.28 268.12 199.88 268.12C193.48 268.12 187.88 267.053 183.08 264.92C178.28 262.68 174.547 259.64 171.88 255.8C169.32 251.853 168.04 247.427 168.04 242.52C168.04 234.84 170.867 228.707 176.52 224.12C182.28 219.427 191.293 217.08 203.56 217.08H225.64V215.8C225.64 209.827 223.827 205.24 220.2 202.04C216.68 198.84 211.4 197.24 204.36 197.24C199.56 197.24 194.813 197.987 190.12 199.48C185.533 200.973 181.64 203.053 178.44 205.72L170.6 191.16C175.08 187.747 180.467 185.133 186.76 183.32C193.053 181.507 199.72 180.6 206.76 180.6ZM204.04 253.56C209.053 253.56 213.48 252.44 217.32 250.2C221.267 247.853 224.04 244.547 225.64 240.28V230.36H205C193.48 230.36 187.72 234.147 187.72 241.72C187.72 245.347 189.16 248.227 192.04 250.36C194.92 252.493 198.92 253.56 204.04 253.56Z" fill="#222222"/>
</svg>
