<svg width="420" height="420" viewBox="0 0 420 420" fill="none" xmlns="http://www.w3.org/2000/svg">
<path d="M203.25 6.74978C206.978 3.02198 213.022 3.02198 216.75 6.74978L413.25 203.25C416.978 206.978 416.978 213.022 413.25 216.75L216.75 413.25C213.022 416.978 206.978 416.978 203.25 413.25L6.7498 216.75C3.022 213.022 3.022 206.978 6.7498 203.25L203.25 6.74978Z" fill="#FDD900"/>
<path fill-rule="evenodd" clip-rule="evenodd" d="M387.208 206.291L213.375 32.4577C211.511 30.5938 208.489 30.5938 206.625 32.4577L32.7916 206.291C30.9277 208.155 30.9277 211.177 32.7916 213.041L206.625 386.874C208.489 388.738 211.511 388.738 213.375 386.874L387.208 213.041C389.072 211.177 389.072 208.155 387.208 206.291ZM216.75 29.0828C213.022 25.355 206.978 25.355 203.25 29.0828L29.4167 202.916C25.6889 206.644 25.6889 212.688 29.4167 216.416L203.25 390.249C206.978 393.977 213.022 393.977 216.75 390.249L390.583 216.416C394.311 212.688 394.311 206.644 390.583 202.916L216.75 29.0828Z" fill="black"/>
<path d="M243.4 208.76C249.587 210.787 254.493 214.2 258.12 219C261.747 223.693 263.56 229.56 263.56 236.6C263.56 246.307 259.827 253.827 252.36 259.16C244.893 264.387 234.013 267 219.72 267H164.04V155H216.52C229.747 155 239.933 157.613 247.08 162.84C254.227 167.96 257.8 175.053 257.8 184.12C257.8 189.667 256.52 194.573 253.96 198.84C251.4 203.107 247.88 206.413 243.4 208.76ZM184.84 171.32V202.2H214.28C221.533 202.2 227.08 200.92 230.92 198.36C234.867 195.693 236.84 191.853 236.84 186.84C236.84 181.72 234.867 177.88 230.92 175.32C227.08 172.653 221.533 171.32 214.28 171.32H184.84ZM218.44 250.68C234.547 250.68 242.6 245.293 242.6 234.52C242.6 223.747 234.547 218.36 218.44 218.36H184.84V250.68H218.44Z" fill="#222222"/>
</svg>
