<svg width="420" height="420" viewBox="0 0 420 420" fill="none" xmlns="http://www.w3.org/2000/svg">
<path d="M203.25 6.74978C206.978 3.02198 213.022 3.02198 216.75 6.74978L413.25 203.25C416.978 206.978 416.978 213.022 413.25 216.75L216.75 413.25C213.022 416.978 206.978 416.978 203.25 413.25L6.7498 216.75C3.022 213.022 3.022 206.978 6.7498 203.25L203.25 6.74978Z" fill="#FDD900"/>
<path fill-rule="evenodd" clip-rule="evenodd" d="M387.208 206.291L213.375 32.4577C211.511 30.5938 208.489 30.5938 206.625 32.4577L32.7916 206.291C30.9277 208.155 30.9277 211.177 32.7916 213.041L206.625 386.874C208.489 388.738 211.511 388.738 213.375 386.874L387.208 213.041C389.072 211.177 389.072 208.155 387.208 206.291ZM216.75 29.0828C213.022 25.355 206.978 25.355 203.25 29.0828L29.4167 202.916C25.6889 206.644 25.6889 212.688 29.4167 216.416L203.25 390.249C206.978 393.977 213.022 393.977 216.75 390.249L390.583 216.416C394.311 212.688 394.311 206.644 390.583 202.916L216.75 29.0828Z" fill="black"/>
<path d="M228.309 163.32C219.882 163.32 215.669 167.907 215.669 177.08V182.2H239.189V198.2H216.309V267H196.309V198.2H182.229V182.2H196.309V176.76C196.309 167.587 198.975 160.387 204.309 155.16C209.642 149.827 217.162 147.16 226.869 147.16C234.549 147.16 240.575 148.707 244.949 151.8L239.349 166.84C235.935 164.493 232.255 163.32 228.309 163.32Z" fill="#222222"/>
</svg>
