<svg width="1920" height="400" viewBox="0 0 1920 400" fill="none" xmlns="http://www.w3.org/2000/svg">
<mask id="mask0_152:299" style="mask-type:alpha" maskUnits="userSpaceOnUse" x="0" y="0" width="1920" height="400">
<rect width="1920" height="400" fill="#C4C4C4"/>
</mask>
<g mask="url(#mask0_152:299)">
<rect x="251.995" y="113.355" width="124.448" height="124.448" rx="4" transform="rotate(45 251.995 113.355)" fill="#FDD900"/>
<rect x="251.995" y="124.128" width="109.016" height="109.016" rx="3" transform="rotate(45 251.995 124.128)" fill="#FDD900" stroke="black" stroke-width="2"/>
<path d="M269.549 180.914C274.882 180.914 279.096 182.461 282.189 185.554C285.336 188.647 286.909 193.234 286.909 199.314V223.714H279.229V200.194C279.229 196.087 278.269 192.994 276.349 190.914C274.482 188.834 271.789 187.794 268.269 187.794C264.376 187.794 261.282 189.021 258.989 191.474C256.696 193.874 255.549 197.341 255.549 201.874V223.714H247.869V200.194C247.869 196.087 246.909 192.994 244.989 190.914C243.122 188.834 240.429 187.794 236.909 187.794C233.016 187.794 229.922 189.021 227.629 191.474C225.336 193.874 224.189 197.341 224.189 201.874V223.714H216.509V181.314H223.869V187.634C225.416 185.447 227.442 183.794 229.949 182.674C232.456 181.501 235.309 180.914 238.509 180.914C241.816 180.914 244.749 181.581 247.309 182.914C249.869 184.247 251.842 186.194 253.229 188.754C254.829 186.301 257.042 184.381 259.869 182.994C262.749 181.607 265.976 180.914 269.549 180.914Z" fill="black"/>
<rect x="427.995" y="113.355" width="124.448" height="124.448" rx="4" transform="rotate(45 427.995 113.355)" fill="#FDD900"/>
<rect x="427.995" y="124.128" width="109.016" height="109.016" rx="3" transform="rotate(45 427.995 124.128)" fill="#FDD900" stroke="black" stroke-width="2"/>
<path d="M427.544 224.194C423.331 224.194 419.544 223.261 416.184 221.394C412.824 219.527 410.184 216.967 408.264 213.714C406.397 210.407 405.464 206.674 405.464 202.514C405.464 198.354 406.397 194.647 408.264 191.394C410.184 188.087 412.824 185.527 416.184 183.714C419.544 181.847 423.331 180.914 427.544 180.914C431.757 180.914 435.517 181.847 438.824 183.714C442.184 185.527 444.797 188.087 446.664 191.394C448.584 194.647 449.544 198.354 449.544 202.514C449.544 206.674 448.584 210.407 446.664 213.714C444.797 216.967 442.184 219.527 438.824 221.394C435.517 223.261 431.757 224.194 427.544 224.194ZM427.544 217.474C430.264 217.474 432.691 216.861 434.824 215.634C437.011 214.354 438.717 212.594 439.944 210.354C441.171 208.061 441.784 205.447 441.784 202.514C441.784 199.581 441.171 196.994 439.944 194.754C438.717 192.461 437.011 190.701 434.824 189.474C432.691 188.247 430.264 187.634 427.544 187.634C424.824 187.634 422.371 188.247 420.184 189.474C418.051 190.701 416.344 192.461 415.064 194.754C413.837 196.994 413.224 199.581 413.224 202.514C413.224 205.447 413.837 208.061 415.064 210.354C416.344 212.594 418.051 214.354 420.184 215.634C422.371 216.861 424.824 217.474 427.544 217.474Z" fill="black"/>
<rect x="603.995" y="113.355" width="124.448" height="124.448" rx="4" transform="rotate(45 603.995 113.355)" fill="#FDD900"/>
<rect x="603.995" y="124.128" width="109.016" height="109.016" rx="3" transform="rotate(45 603.995 124.128)" fill="#FDD900" stroke="black" stroke-width="2"/>
<path d="M606.188 180.914C611.575 180.914 615.841 182.487 618.988 185.634C622.188 188.727 623.788 193.287 623.788 199.314V223.714H616.108V200.194C616.108 196.087 615.121 192.994 613.148 190.914C611.175 188.834 608.348 187.794 604.668 187.794C600.508 187.794 597.228 189.021 594.828 191.474C592.428 193.874 591.228 197.341 591.228 201.874V223.714H583.548V181.314H590.908V187.714C592.455 185.527 594.535 183.847 597.148 182.674C599.815 181.501 602.828 180.914 606.188 180.914Z" fill="black"/>
<rect x="779.995" y="113.355" width="124.448" height="124.448" rx="4" transform="rotate(45 779.995 113.355)" fill="#FDD900"/>
<rect x="779.995" y="124.128" width="109.016" height="109.016" rx="3" transform="rotate(45 779.995 124.128)" fill="#FDD900" stroke="black" stroke-width="2"/>
<path d="M793.552 221.234C792.432 222.194 791.045 222.941 789.392 223.474C787.739 223.954 786.032 224.194 784.272 224.194C780.005 224.194 776.699 223.047 774.352 220.754C772.005 218.461 770.832 215.181 770.832 210.914V187.634H763.632V181.314H770.832V172.034H778.512V181.314H790.672V187.634H778.512V210.594C778.512 212.887 779.072 214.647 780.192 215.874C781.365 217.101 783.019 217.714 785.152 217.714C787.499 217.714 789.499 217.047 791.152 215.714L793.552 221.234Z" fill="black"/>
<rect x="955.995" y="113.355" width="124.448" height="124.448" rx="4" transform="rotate(45 955.995 113.355)" fill="#FDD900"/>
<rect x="955.995" y="124.128" width="109.016" height="109.016" rx="3" transform="rotate(45 955.995 124.128)" fill="#FDD900" stroke="black" stroke-width="2"/>
<path d="M954.896 224.194C951.429 224.194 948.096 223.741 944.896 222.834C941.696 221.874 939.189 220.674 937.376 219.234L940.576 213.154C942.442 214.487 944.709 215.554 947.376 216.354C950.042 217.154 952.736 217.554 955.456 217.554C962.176 217.554 965.536 215.634 965.536 211.794C965.536 210.514 965.082 209.501 964.176 208.754C963.269 208.007 962.122 207.474 960.736 207.154C959.402 206.781 957.482 206.381 954.976 205.954C951.562 205.421 948.762 204.807 946.576 204.114C944.442 203.421 942.602 202.247 941.056 200.594C939.509 198.941 938.736 196.621 938.736 193.634C938.736 189.794 940.336 186.727 943.536 184.434C946.736 182.087 951.029 180.914 956.416 180.914C959.242 180.914 962.069 181.261 964.896 181.954C967.722 182.647 970.042 183.581 971.856 184.754L968.576 190.834C965.109 188.594 961.029 187.474 956.336 187.474C953.082 187.474 950.602 188.007 948.896 189.074C947.189 190.141 946.336 191.554 946.336 193.314C946.336 194.701 946.816 195.794 947.776 196.594C948.736 197.394 949.909 197.981 951.296 198.354C952.736 198.727 954.736 199.154 957.296 199.634C960.709 200.221 963.456 200.861 965.536 201.554C967.669 202.194 969.482 203.314 970.976 204.914C972.469 206.514 973.216 208.754 973.216 211.634C973.216 215.474 971.562 218.541 968.256 220.834C965.002 223.074 960.549 224.194 954.896 224.194Z" fill="black"/>
<rect x="1131.99" y="113.355" width="124.448" height="124.448" rx="4" transform="rotate(45 1131.99 113.355)" fill="#FDD900"/>
<rect x="1131.99" y="124.128" width="109.016" height="109.016" rx="3" transform="rotate(45 1131.99 124.128)" fill="#FDD900" stroke="black" stroke-width="2"/>
<path d="M1152.6 202.754C1152.6 203.341 1152.55 204.114 1152.44 205.074H1118.04C1118.52 208.807 1120.15 211.821 1122.92 214.114C1125.75 216.354 1129.24 217.474 1133.4 217.474C1138.47 217.474 1142.55 215.767 1145.64 212.354L1149.88 217.314C1147.96 219.554 1145.56 221.261 1142.68 222.434C1139.86 223.607 1136.68 224.194 1133.16 224.194C1128.68 224.194 1124.71 223.287 1121.24 221.474C1117.78 219.607 1115.08 217.021 1113.16 213.714C1111.3 210.407 1110.36 206.674 1110.36 202.514C1110.36 198.407 1111.27 194.701 1113.08 191.394C1114.95 188.087 1117.48 185.527 1120.68 183.714C1123.94 181.847 1127.59 180.914 1131.64 180.914C1135.7 180.914 1139.3 181.847 1142.44 183.714C1145.64 185.527 1148.12 188.087 1149.88 191.394C1151.7 194.701 1152.6 198.487 1152.6 202.754ZM1131.64 187.394C1127.96 187.394 1124.87 188.514 1122.36 190.754C1119.91 192.994 1118.47 195.927 1118.04 199.554H1145.24C1144.82 195.981 1143.35 193.074 1140.84 190.834C1138.39 188.541 1135.32 187.394 1131.64 187.394Z" fill="black"/>
<rect x="1307.99" y="113.355" width="124.448" height="124.448" rx="4" transform="rotate(45 1307.99 113.355)" fill="#FDD900"/>
<rect x="1307.99" y="124.128" width="109.016" height="109.016" rx="3" transform="rotate(45 1307.99 124.128)" fill="#FDD900" stroke="black" stroke-width="2"/>
<path d="M1305.73 188.434C1307.06 185.981 1309.04 184.114 1311.65 182.834C1314.26 181.554 1317.44 180.914 1321.17 180.914V188.354C1320.74 188.301 1320.16 188.274 1319.41 188.274C1315.25 188.274 1311.97 189.527 1309.57 192.034C1307.22 194.487 1306.05 198.007 1306.05 202.594V223.714H1298.37V181.314H1305.73V188.434Z" fill="black"/>
<rect x="1483.99" y="113.355" width="124.448" height="124.448" rx="4" transform="rotate(45 1483.99 113.355)" fill="#FDD900"/>
<rect x="1483.99" y="124.128" width="109.016" height="109.016" rx="3" transform="rotate(45 1483.99 124.128)" fill="#FDD900" stroke="black" stroke-width="2"/>
<path d="M1481.73 188.434C1483.06 185.981 1485.04 184.114 1487.65 182.834C1490.26 181.554 1493.44 180.914 1497.17 180.914V188.354C1496.74 188.301 1496.16 188.274 1495.41 188.274C1491.25 188.274 1487.97 189.527 1485.57 192.034C1483.22 194.487 1482.05 198.007 1482.05 202.594V223.714H1474.37V181.314H1481.73V188.434Z" fill="black"/>
<rect x="1659.99" y="113.355" width="124.448" height="124.448" rx="4" transform="rotate(45 1659.99 113.355)" fill="#FDD900"/>
<rect x="1659.99" y="124.128" width="109.016" height="109.016" rx="3" transform="rotate(45 1659.99 124.128)" fill="#FDD900" stroke="black" stroke-width="2"/>
<path d="M1657.81 180.914C1663.67 180.914 1668.15 182.354 1671.25 185.234C1674.39 188.114 1675.97 192.407 1675.97 198.114V223.714H1668.69V218.114C1667.41 220.087 1665.57 221.607 1663.17 222.674C1660.82 223.687 1658.02 224.194 1654.77 224.194C1650.02 224.194 1646.21 223.047 1643.33 220.754C1640.5 218.461 1639.09 215.447 1639.09 211.714C1639.09 207.981 1640.45 204.994 1643.17 202.754C1645.89 200.461 1650.21 199.314 1656.13 199.314H1668.29V197.794C1668.29 194.487 1667.33 191.954 1665.41 190.194C1663.49 188.434 1660.66 187.554 1656.93 187.554C1654.42 187.554 1651.97 187.981 1649.57 188.834C1647.17 189.634 1645.14 190.727 1643.49 192.114L1640.29 186.354C1642.47 184.594 1645.09 183.261 1648.13 182.354C1651.17 181.394 1654.39 180.914 1657.81 180.914ZM1656.05 218.274C1658.98 218.274 1661.51 217.634 1663.65 216.354C1665.78 215.021 1667.33 213.154 1668.29 210.754V204.834H1656.45C1649.94 204.834 1646.69 207.021 1646.69 211.394C1646.69 213.527 1647.51 215.207 1649.17 216.434C1650.82 217.661 1653.11 218.274 1656.05 218.274Z" fill="black"/>
<rect x="1835.99" y="113.355" width="124.448" height="124.448" rx="4" transform="rotate(45 1835.99 113.355)" fill="#FDD900"/>
<rect x="1835.99" y="124.128" width="109.016" height="109.016" rx="3" transform="rotate(45 1835.99 124.128)" fill="#FDD900" stroke="black" stroke-width="2"/>
<path d="M1849.55 221.234C1848.43 222.194 1847.05 222.941 1845.39 223.474C1843.74 223.954 1842.03 224.194 1840.27 224.194C1836.01 224.194 1832.7 223.047 1830.35 220.754C1828.01 218.461 1826.83 215.181 1826.83 210.914V187.634H1819.63V181.314H1826.83V172.034H1834.51V181.314H1846.67V187.634H1834.51V210.594C1834.51 212.887 1835.07 214.647 1836.19 215.874C1837.37 217.101 1839.02 217.714 1841.15 217.714C1843.5 217.714 1845.5 217.047 1847.15 215.714L1849.55 221.234Z" fill="black"/>
<rect x="77.9946" y="113.714" width="124.448" height="124.448" rx="4" transform="rotate(45 77.9946 113.714)" fill="#FDD900"/>
<rect x="77.9946" y="124.486" width="109.016" height="109.016" rx="3" transform="rotate(45 77.9946 124.486)" fill="#FDD900" stroke="black" stroke-width="2"/>
<path fill-rule="evenodd" clip-rule="evenodd" d="M92.7109 227.714L118.995 201.714L92.7109 175.714L89.0539 179.331L109.095 199.156H36.9946V204.272H109.095L89.0539 224.096L92.7109 227.714Z" fill="#222222" stroke="#222222" stroke-width="4" stroke-linecap="square"/>
<rect x="157.999" width="124.448" height="124.448" rx="4" transform="rotate(45 157.999 0)" fill="#FDD900"/>
<rect x="157.999" y="10.7726" width="109.016" height="109.016" rx="3" transform="rotate(45 157.999 10.7726)" fill="#FDD900" stroke="black" stroke-width="2"/>
<path d="M175.553 67.5584C180.886 67.5584 185.1 69.1051 188.193 72.1984C191.34 75.2917 192.913 79.8784 192.913 85.9584V110.358H185.233V86.8384C185.233 82.7317 184.273 79.6384 182.353 77.5584C180.486 75.4784 177.793 74.4384 174.273 74.4384C170.38 74.4384 167.286 75.6651 164.993 78.1184C162.7 80.5184 161.553 83.9851 161.553 88.5184V110.358H153.873V86.8384C153.873 82.7317 152.913 79.6384 150.993 77.5584C149.126 75.4784 146.433 74.4384 142.913 74.4384C139.02 74.4384 135.926 75.6651 133.633 78.1184C131.34 80.5184 130.193 83.9851 130.193 88.5184V110.358H122.513V67.9584H129.873V74.2784C131.42 72.0917 133.446 70.4384 135.953 69.3184C138.46 68.1451 141.313 67.5584 144.513 67.5584C147.82 67.5584 150.753 68.2251 153.313 69.5584C155.873 70.8917 157.846 72.8384 159.233 75.3984C160.833 72.9451 163.046 71.0251 165.873 69.6384C168.753 68.2517 171.98 67.5584 175.553 67.5584Z" fill="black"/>
<rect x="333.999" width="124.448" height="124.448" rx="4" transform="rotate(45 333.999 0)" fill="#FDD900"/>
<rect x="333.999" y="10.7726" width="109.016" height="109.016" rx="3" transform="rotate(45 333.999 10.7726)" fill="#FDD900" stroke="black" stroke-width="2"/>
<path d="M333.548 110.838C329.335 110.838 325.548 109.905 322.188 108.038C318.828 106.172 316.188 103.612 314.268 100.358C312.401 97.0517 311.468 93.3184 311.468 89.1584C311.468 84.9984 312.401 81.2917 314.268 78.0384C316.188 74.7317 318.828 72.1717 322.188 70.3584C325.548 68.4917 329.335 67.5584 333.548 67.5584C337.761 67.5584 341.521 68.4917 344.828 70.3584C348.188 72.1717 350.801 74.7317 352.668 78.0384C354.588 81.2917 355.548 84.9984 355.548 89.1584C355.548 93.3184 354.588 97.0517 352.668 100.358C350.801 103.612 348.188 106.172 344.828 108.038C341.521 109.905 337.761 110.838 333.548 110.838ZM333.548 104.118C336.268 104.118 338.695 103.505 340.828 102.278C343.015 100.998 344.721 99.2384 345.948 96.9984C347.175 94.7051 347.788 92.0917 347.788 89.1584C347.788 86.2251 347.175 83.6384 345.948 81.3984C344.721 79.1051 343.015 77.3451 340.828 76.1184C338.695 74.8917 336.268 74.2784 333.548 74.2784C330.828 74.2784 328.375 74.8917 326.188 76.1184C324.055 77.3451 322.348 79.1051 321.068 81.3984C319.841 83.6384 319.228 86.2251 319.228 89.1584C319.228 92.0917 319.841 94.7051 321.068 96.9984C322.348 99.2384 324.055 100.998 326.188 102.278C328.375 103.505 330.828 104.118 333.548 104.118Z" fill="black"/>
<rect x="509.999" width="124.448" height="124.448" rx="4" transform="rotate(45 509.999 0)" fill="#FDD900"/>
<rect x="509.999" y="10.7726" width="109.016" height="109.016" rx="3" transform="rotate(45 509.999 10.7726)" fill="#FDD900" stroke="black" stroke-width="2"/>
<path d="M512.192 67.5584C517.579 67.5584 521.845 69.1317 524.992 72.2784C528.192 75.3717 529.792 79.9317 529.792 85.9584V110.358H522.112V86.8384C522.112 82.7317 521.125 79.6384 519.152 77.5584C517.179 75.4784 514.352 74.4384 510.672 74.4384C506.512 74.4384 503.232 75.6651 500.832 78.1184C498.432 80.5184 497.232 83.9851 497.232 88.5184V110.358H489.552V67.9584H496.912V74.3584C498.459 72.1717 500.539 70.4917 503.152 69.3184C505.819 68.1451 508.832 67.5584 512.192 67.5584Z" fill="black"/>
<rect x="685.999" width="124.448" height="124.448" rx="4" transform="rotate(45 685.999 0)" fill="#FDD900"/>
<rect x="685.999" y="10.7726" width="109.016" height="109.016" rx="3" transform="rotate(45 685.999 10.7726)" fill="#FDD900" stroke="black" stroke-width="2"/>
<path d="M699.556 107.878C698.436 108.838 697.049 109.585 695.396 110.118C693.743 110.598 692.036 110.838 690.276 110.838C686.009 110.838 682.703 109.692 680.356 107.398C678.009 105.105 676.836 101.825 676.836 97.5584V74.2784H669.636V67.9584H676.836V58.6784H684.516V67.9584H696.676V74.2784H684.516V97.2384C684.516 99.5317 685.076 101.292 686.196 102.518C687.369 103.745 689.023 104.358 691.156 104.358C693.503 104.358 695.503 103.692 697.156 102.358L699.556 107.878Z" fill="black"/>
<rect x="861.999" width="124.448" height="124.448" rx="4" transform="rotate(45 861.999 0)" fill="#FDD900"/>
<rect x="861.999" y="10.7726" width="109.016" height="109.016" rx="3" transform="rotate(45 861.999 10.7726)" fill="#FDD900" stroke="black" stroke-width="2"/>
<path d="M860.899 110.838C857.433 110.838 854.099 110.385 850.899 109.478C847.699 108.518 845.193 107.318 843.379 105.878L846.579 99.7984C848.446 101.132 850.713 102.198 853.379 102.998C856.046 103.798 858.739 104.198 861.459 104.198C868.179 104.198 871.539 102.278 871.539 98.4384C871.539 97.1584 871.086 96.1451 870.179 95.3984C869.273 94.6517 868.126 94.1184 866.739 93.7984C865.406 93.4251 863.486 93.0251 860.979 92.5984C857.566 92.0651 854.766 91.4517 852.579 90.7584C850.446 90.0651 848.606 88.8917 847.059 87.2384C845.513 85.5851 844.739 83.2651 844.739 80.2784C844.739 76.4384 846.339 73.3717 849.539 71.0784C852.739 68.7317 857.033 67.5584 862.419 67.5584C865.246 67.5584 868.073 67.9051 870.899 68.5984C873.726 69.2917 876.046 70.2251 877.859 71.3984L874.579 77.4784C871.113 75.2384 867.033 74.1184 862.339 74.1184C859.086 74.1184 856.606 74.6517 854.899 75.7184C853.193 76.7851 852.339 78.1984 852.339 79.9584C852.339 81.3451 852.819 82.4384 853.779 83.2384C854.739 84.0384 855.913 84.6251 857.299 84.9984C858.739 85.3717 860.739 85.7984 863.299 86.2784C866.713 86.8651 869.459 87.5051 871.539 88.1984C873.673 88.8384 875.486 89.9584 876.979 91.5584C878.473 93.1584 879.219 95.3984 879.219 98.2784C879.219 102.118 877.566 105.185 874.259 107.478C871.006 109.718 866.553 110.838 860.899 110.838Z" fill="black"/>
<rect x="1038" width="124.448" height="124.448" rx="4" transform="rotate(45 1038 0)" fill="#FDD900"/>
<rect x="1038" y="10.7726" width="109.016" height="109.016" rx="3" transform="rotate(45 1038 10.7726)" fill="#FDD900" stroke="black" stroke-width="2"/>
<path d="M1058.61 89.3984C1058.61 89.9851 1058.55 90.7584 1058.45 91.7184H1024.05C1024.53 95.4517 1026.15 98.4651 1028.93 100.758C1031.75 102.998 1035.25 104.118 1039.41 104.118C1044.47 104.118 1048.55 102.412 1051.65 98.9984L1055.89 103.958C1053.97 106.198 1051.57 107.905 1048.69 109.078C1045.86 110.252 1042.69 110.838 1039.17 110.838C1034.69 110.838 1030.71 109.932 1027.25 108.118C1023.78 106.252 1021.09 103.665 1019.17 100.358C1017.3 97.0517 1016.37 93.3184 1016.37 89.1584C1016.37 85.0517 1017.27 81.3451 1019.09 78.0384C1020.95 74.7317 1023.49 72.1717 1026.69 70.3584C1029.94 68.4917 1033.59 67.5584 1037.65 67.5584C1041.7 67.5584 1045.3 68.4917 1048.45 70.3584C1051.65 72.1717 1054.13 74.7317 1055.89 78.0384C1057.7 81.3451 1058.61 85.1317 1058.61 89.3984ZM1037.65 74.0384C1033.97 74.0384 1030.87 75.1584 1028.37 77.3984C1025.91 79.6384 1024.47 82.5717 1024.05 86.1984H1051.25C1050.82 82.6251 1049.35 79.7184 1046.85 77.4784C1044.39 75.1851 1041.33 74.0384 1037.65 74.0384Z" fill="black"/>
<rect x="1214" width="124.448" height="124.448" rx="4" transform="rotate(45 1214 0)" fill="#FDD900"/>
<rect x="1214" y="10.7726" width="109.016" height="109.016" rx="3" transform="rotate(45 1214 10.7726)" fill="#FDD900" stroke="black" stroke-width="2"/>
<path d="M1211.73 75.0784C1213.07 72.6251 1215.04 70.7584 1217.65 69.4784C1220.27 68.1984 1223.44 67.5584 1227.17 67.5584V74.9984C1226.75 74.9451 1226.16 74.9184 1225.41 74.9184C1221.25 74.9184 1217.97 76.1717 1215.57 78.6784C1213.23 81.1317 1212.05 84.6517 1212.05 89.2384V110.358H1204.37V67.9584H1211.73V75.0784Z" fill="black"/>
<rect x="1390" width="124.448" height="124.448" rx="4" transform="rotate(45 1390 0)" fill="#FDD900"/>
<rect x="1390" y="10.7726" width="109.016" height="109.016" rx="3" transform="rotate(45 1390 10.7726)" fill="#FDD900" stroke="black" stroke-width="2"/>
<path d="M1387.73 75.0784C1389.07 72.6251 1391.04 70.7584 1393.65 69.4784C1396.27 68.1984 1399.44 67.5584 1403.17 67.5584V74.9984C1402.75 74.9451 1402.16 74.9184 1401.41 74.9184C1397.25 74.9184 1393.97 76.1717 1391.57 78.6784C1389.23 81.1317 1388.05 84.6517 1388.05 89.2384V110.358H1380.37V67.9584H1387.73V75.0784Z" fill="black"/>
<rect x="1566" width="124.448" height="124.448" rx="4" transform="rotate(45 1566 0)" fill="#FDD900"/>
<rect x="1566" y="10.7726" width="109.016" height="109.016" rx="3" transform="rotate(45 1566 10.7726)" fill="#FDD900" stroke="black" stroke-width="2"/>
<path d="M1563.81 67.5584C1569.68 67.5584 1574.16 68.9984 1577.25 71.8784C1580.4 74.7584 1581.97 79.0517 1581.97 84.7584V110.358H1574.69V104.758C1573.41 106.732 1571.57 108.252 1569.17 109.318C1566.83 110.332 1564.03 110.838 1560.77 110.838C1556.03 110.838 1552.21 109.692 1549.33 107.398C1546.51 105.105 1545.09 102.092 1545.09 98.3584C1545.09 94.6251 1546.45 91.6384 1549.17 89.3984C1551.89 87.1051 1556.21 85.9584 1562.13 85.9584H1574.29V84.4384C1574.29 81.1317 1573.33 78.5984 1571.41 76.8384C1569.49 75.0784 1566.67 74.1984 1562.93 74.1984C1560.43 74.1984 1557.97 74.6251 1555.57 75.4784C1553.17 76.2784 1551.15 77.3717 1549.49 78.7584L1546.29 72.9984C1548.48 71.2384 1551.09 69.9051 1554.13 68.9984C1557.17 68.0384 1560.4 67.5584 1563.81 67.5584ZM1562.05 104.918C1564.99 104.918 1567.52 104.278 1569.65 102.998C1571.79 101.665 1573.33 99.7984 1574.29 97.3984V91.4784H1562.45C1555.95 91.4784 1552.69 93.6651 1552.69 98.0384C1552.69 100.172 1553.52 101.852 1555.17 103.078C1556.83 104.305 1559.12 104.918 1562.05 104.918Z" fill="black"/>
<rect x="1742" width="124.448" height="124.448" rx="4" transform="rotate(45 1742 0)" fill="#FDD900"/>
<rect x="1742" y="10.7726" width="109.016" height="109.016" rx="3" transform="rotate(45 1742 10.7726)" fill="#FDD900" stroke="black" stroke-width="2"/>
<path d="M1755.56 107.878C1754.44 108.838 1753.05 109.585 1751.4 110.118C1749.74 110.598 1748.04 110.838 1746.28 110.838C1742.01 110.838 1738.7 109.692 1736.36 107.398C1734.01 105.105 1732.84 101.825 1732.84 97.5584V74.2784H1725.64V67.9584H1732.84V58.6784H1740.52V67.9584H1752.68V74.2784H1740.52V97.2384C1740.52 99.5317 1741.08 101.292 1742.2 102.518C1743.37 103.745 1745.02 104.358 1747.16 104.358C1749.5 104.358 1751.5 103.692 1753.16 102.358L1755.56 107.878Z" fill="black"/>
<rect x="-16.0015" y="0.358398" width="124.448" height="124.448" rx="4" transform="rotate(45 -16.0015 0.358398)" fill="#FDD900"/>
<rect x="-16.0015" y="11.131" width="109.016" height="109.016" rx="3" transform="rotate(45 -16.0015 11.131)" fill="#FDD900" stroke="black" stroke-width="2"/>
<path fill-rule="evenodd" clip-rule="evenodd" d="M-1.28522 114.358L24.9985 88.3584L-1.28522 62.3584L-4.94223 65.9759L15.0986 85.8004L-57.0015 85.8004V90.9164L15.0986 90.9164L-4.94223 110.741L-1.28522 114.358Z" fill="#222222" stroke="#222222" stroke-width="4" stroke-linecap="square"/>
<rect x="1916" y="0.358398" width="124.448" height="124.448" rx="4" transform="rotate(45 1916 0.358398)" fill="#FDD900"/>
<rect x="1916" y="11.131" width="109.016" height="109.016" rx="3" transform="rotate(45 1916 11.131)" fill="#FDD900" stroke="black" stroke-width="2"/>
<path fill-rule="evenodd" clip-rule="evenodd" d="M1930.71 114.358L1957 88.3584L1930.71 62.3584L1927.06 65.9759L1947.1 85.8004L1875 85.8004V90.9164L1947.1 90.9164L1927.06 110.741L1930.71 114.358Z" fill="#222222" stroke="#222222" stroke-width="4" stroke-linecap="square"/>
<rect x="157.999" y="226.711" width="124.448" height="124.448" rx="4" transform="rotate(45 157.999 226.711)" fill="#FDD900"/>
<rect x="157.999" y="237.484" width="109.016" height="109.016" rx="3" transform="rotate(45 157.999 237.484)" fill="#FDD900" stroke="black" stroke-width="2"/>
<path d="M175.553 294.269C180.886 294.269 185.1 295.816 188.193 298.909C191.34 302.003 192.913 306.589 192.913 312.669V337.069H185.233V313.549C185.233 309.443 184.273 306.349 182.353 304.269C180.486 302.189 177.793 301.149 174.273 301.149C170.38 301.149 167.286 302.376 164.993 304.829C162.7 307.229 161.553 310.696 161.553 315.229V337.069H153.873V313.549C153.873 309.443 152.913 306.349 150.993 304.269C149.126 302.189 146.433 301.149 142.913 301.149C139.02 301.149 135.926 302.376 133.633 304.829C131.34 307.229 130.193 310.696 130.193 315.229V337.069H122.513V294.669H129.873V300.989C131.42 298.803 133.446 297.149 135.953 296.029C138.46 294.856 141.313 294.269 144.513 294.269C147.82 294.269 150.753 294.936 153.313 296.269C155.873 297.603 157.846 299.549 159.233 302.109C160.833 299.656 163.046 297.736 165.873 296.349C168.753 294.963 171.98 294.269 175.553 294.269Z" fill="black"/>
<rect x="333.999" y="226.711" width="124.448" height="124.448" rx="4" transform="rotate(45 333.999 226.711)" fill="#FDD900"/>
<rect x="333.999" y="237.484" width="109.016" height="109.016" rx="3" transform="rotate(45 333.999 237.484)" fill="#FDD900" stroke="black" stroke-width="2"/>
<path d="M333.548 337.549C329.335 337.549 325.548 336.616 322.188 334.749C318.828 332.883 316.188 330.323 314.268 327.069C312.401 323.763 311.468 320.029 311.468 315.869C311.468 311.709 312.401 308.003 314.268 304.749C316.188 301.443 318.828 298.883 322.188 297.069C325.548 295.203 329.335 294.269 333.548 294.269C337.761 294.269 341.521 295.203 344.828 297.069C348.188 298.883 350.801 301.443 352.668 304.749C354.588 308.003 355.548 311.709 355.548 315.869C355.548 320.029 354.588 323.763 352.668 327.069C350.801 330.323 348.188 332.883 344.828 334.749C341.521 336.616 337.761 337.549 333.548 337.549ZM333.548 330.829C336.268 330.829 338.695 330.216 340.828 328.989C343.015 327.709 344.721 325.949 345.948 323.709C347.175 321.416 347.788 318.803 347.788 315.869C347.788 312.936 347.175 310.349 345.948 308.109C344.721 305.816 343.015 304.056 340.828 302.829C338.695 301.603 336.268 300.989 333.548 300.989C330.828 300.989 328.375 301.603 326.188 302.829C324.055 304.056 322.348 305.816 321.068 308.109C319.841 310.349 319.228 312.936 319.228 315.869C319.228 318.803 319.841 321.416 321.068 323.709C322.348 325.949 324.055 327.709 326.188 328.989C328.375 330.216 330.828 330.829 333.548 330.829Z" fill="black"/>
<rect x="509.999" y="226.711" width="124.448" height="124.448" rx="4" transform="rotate(45 509.999 226.711)" fill="#FDD900"/>
<rect x="509.999" y="237.484" width="109.016" height="109.016" rx="3" transform="rotate(45 509.999 237.484)" fill="#FDD900" stroke="black" stroke-width="2"/>
<path d="M512.192 294.269C517.579 294.269 521.845 295.843 524.992 298.989C528.192 302.083 529.792 306.643 529.792 312.669V337.069H522.112V313.549C522.112 309.443 521.125 306.349 519.152 304.269C517.179 302.189 514.352 301.149 510.672 301.149C506.512 301.149 503.232 302.376 500.832 304.829C498.432 307.229 497.232 310.696 497.232 315.229V337.069H489.552V294.669H496.912V301.069C498.459 298.883 500.539 297.203 503.152 296.029C505.819 294.856 508.832 294.269 512.192 294.269Z" fill="black"/>
<rect x="685.999" y="226.711" width="124.448" height="124.448" rx="4" transform="rotate(45 685.999 226.711)" fill="#FDD900"/>
<rect x="685.999" y="237.484" width="109.016" height="109.016" rx="3" transform="rotate(45 685.999 237.484)" fill="#FDD900" stroke="black" stroke-width="2"/>
<path d="M699.556 334.589C698.436 335.549 697.049 336.296 695.396 336.829C693.743 337.309 692.036 337.549 690.276 337.549C686.009 337.549 682.703 336.403 680.356 334.109C678.009 331.816 676.836 328.536 676.836 324.269V300.989H669.636V294.669H676.836V285.389H684.516V294.669H696.676V300.989H684.516V323.949C684.516 326.243 685.076 328.003 686.196 329.229C687.369 330.456 689.023 331.069 691.156 331.069C693.503 331.069 695.503 330.403 697.156 329.069L699.556 334.589Z" fill="black"/>
<rect x="861.999" y="226.711" width="124.448" height="124.448" rx="4" transform="rotate(45 861.999 226.711)" fill="#FDD900"/>
<rect x="861.999" y="237.484" width="109.016" height="109.016" rx="3" transform="rotate(45 861.999 237.484)" fill="#FDD900" stroke="black" stroke-width="2"/>
<path d="M860.899 337.549C857.433 337.549 854.099 337.096 850.899 336.189C847.699 335.229 845.193 334.029 843.379 332.589L846.579 326.509C848.446 327.843 850.713 328.909 853.379 329.709C856.046 330.509 858.739 330.909 861.459 330.909C868.179 330.909 871.539 328.989 871.539 325.149C871.539 323.869 871.086 322.856 870.179 322.109C869.273 321.363 868.126 320.829 866.739 320.509C865.406 320.136 863.486 319.736 860.979 319.309C857.566 318.776 854.766 318.163 852.579 317.469C850.446 316.776 848.606 315.603 847.059 313.949C845.513 312.296 844.739 309.976 844.739 306.989C844.739 303.149 846.339 300.083 849.539 297.789C852.739 295.443 857.033 294.269 862.419 294.269C865.246 294.269 868.073 294.616 870.899 295.309C873.726 296.003 876.046 296.936 877.859 298.109L874.579 304.189C871.113 301.949 867.033 300.829 862.339 300.829C859.086 300.829 856.606 301.363 854.899 302.429C853.193 303.496 852.339 304.909 852.339 306.669C852.339 308.056 852.819 309.149 853.779 309.949C854.739 310.749 855.913 311.336 857.299 311.709C858.739 312.083 860.739 312.509 863.299 312.989C866.713 313.576 869.459 314.216 871.539 314.909C873.673 315.549 875.486 316.669 876.979 318.269C878.473 319.869 879.219 322.109 879.219 324.989C879.219 328.829 877.566 331.896 874.259 334.189C871.006 336.429 866.553 337.549 860.899 337.549Z" fill="black"/>
<rect x="1038" y="226.711" width="124.448" height="124.448" rx="4" transform="rotate(45 1038 226.711)" fill="#FDD900"/>
<rect x="1038" y="237.484" width="109.016" height="109.016" rx="3" transform="rotate(45 1038 237.484)" fill="#FDD900" stroke="black" stroke-width="2"/>
<path d="M1058.61 316.109C1058.61 316.696 1058.55 317.469 1058.45 318.429H1024.05C1024.53 322.163 1026.15 325.176 1028.93 327.469C1031.75 329.709 1035.25 330.829 1039.41 330.829C1044.47 330.829 1048.55 329.123 1051.65 325.709L1055.89 330.669C1053.97 332.909 1051.57 334.616 1048.69 335.789C1045.86 336.963 1042.69 337.549 1039.17 337.549C1034.69 337.549 1030.71 336.643 1027.25 334.829C1023.78 332.963 1021.09 330.376 1019.17 327.069C1017.3 323.763 1016.37 320.029 1016.37 315.869C1016.37 311.763 1017.27 308.056 1019.09 304.749C1020.95 301.443 1023.49 298.883 1026.69 297.069C1029.94 295.203 1033.59 294.269 1037.65 294.269C1041.7 294.269 1045.3 295.203 1048.45 297.069C1051.65 298.883 1054.13 301.443 1055.89 304.749C1057.7 308.056 1058.61 311.843 1058.61 316.109ZM1037.65 300.749C1033.97 300.749 1030.87 301.869 1028.37 304.109C1025.91 306.349 1024.47 309.283 1024.05 312.909H1051.25C1050.82 309.336 1049.35 306.429 1046.85 304.189C1044.39 301.896 1041.33 300.749 1037.65 300.749Z" fill="black"/>
<rect x="1214" y="226.711" width="124.448" height="124.448" rx="4" transform="rotate(45 1214 226.711)" fill="#FDD900"/>
<rect x="1214" y="237.484" width="109.016" height="109.016" rx="3" transform="rotate(45 1214 237.484)" fill="#FDD900" stroke="black" stroke-width="2"/>
<path d="M1211.73 301.789C1213.07 299.336 1215.04 297.469 1217.65 296.189C1220.27 294.909 1223.44 294.269 1227.17 294.269V301.709C1226.75 301.656 1226.16 301.629 1225.41 301.629C1221.25 301.629 1217.97 302.883 1215.57 305.389C1213.23 307.843 1212.05 311.363 1212.05 315.949V337.069H1204.37V294.669H1211.73V301.789Z" fill="black"/>
<rect x="1390" y="226.711" width="124.448" height="124.448" rx="4" transform="rotate(45 1390 226.711)" fill="#FDD900"/>
<rect x="1390" y="237.484" width="109.016" height="109.016" rx="3" transform="rotate(45 1390 237.484)" fill="#FDD900" stroke="black" stroke-width="2"/>
<path d="M1387.73 301.789C1389.07 299.336 1391.04 297.469 1393.65 296.189C1396.27 294.909 1399.44 294.269 1403.17 294.269V301.709C1402.75 301.656 1402.16 301.629 1401.41 301.629C1397.25 301.629 1393.97 302.883 1391.57 305.389C1389.23 307.843 1388.05 311.363 1388.05 315.949V337.069H1380.37V294.669H1387.73V301.789Z" fill="black"/>
<rect x="1566" y="226.711" width="124.448" height="124.448" rx="4" transform="rotate(45 1566 226.711)" fill="#FDD900"/>
<rect x="1566" y="237.484" width="109.016" height="109.016" rx="3" transform="rotate(45 1566 237.484)" fill="#FDD900" stroke="black" stroke-width="2"/>
<path d="M1563.81 294.269C1569.68 294.269 1574.16 295.709 1577.25 298.589C1580.4 301.469 1581.97 305.763 1581.97 311.469V337.069H1574.69V331.469C1573.41 333.443 1571.57 334.963 1569.17 336.029C1566.83 337.043 1564.03 337.549 1560.77 337.549C1556.03 337.549 1552.21 336.403 1549.33 334.109C1546.51 331.816 1545.09 328.803 1545.09 325.069C1545.09 321.336 1546.45 318.349 1549.17 316.109C1551.89 313.816 1556.21 312.669 1562.13 312.669H1574.29V311.149C1574.29 307.843 1573.33 305.309 1571.41 303.549C1569.49 301.789 1566.67 300.909 1562.93 300.909C1560.43 300.909 1557.97 301.336 1555.57 302.189C1553.17 302.989 1551.15 304.083 1549.49 305.469L1546.29 299.709C1548.48 297.949 1551.09 296.616 1554.13 295.709C1557.17 294.749 1560.4 294.269 1563.81 294.269ZM1562.05 331.629C1564.99 331.629 1567.52 330.989 1569.65 329.709C1571.79 328.376 1573.33 326.509 1574.29 324.109V318.189H1562.45C1555.95 318.189 1552.69 320.376 1552.69 324.749C1552.69 326.883 1553.52 328.563 1555.17 329.789C1556.83 331.016 1559.12 331.629 1562.05 331.629Z" fill="black"/>
<rect x="1742" y="226.711" width="124.448" height="124.448" rx="4" transform="rotate(45 1742 226.711)" fill="#FDD900"/>
<rect x="1742" y="237.484" width="109.016" height="109.016" rx="3" transform="rotate(45 1742 237.484)" fill="#FDD900" stroke="black" stroke-width="2"/>
<path d="M1755.56 334.589C1754.44 335.549 1753.05 336.296 1751.4 336.829C1749.74 337.309 1748.04 337.549 1746.28 337.549C1742.01 337.549 1738.7 336.403 1736.36 334.109C1734.01 331.816 1732.84 328.536 1732.84 324.269V300.989H1725.64V294.669H1732.84V285.389H1740.52V294.669H1752.68V300.989H1740.52V323.949C1740.52 326.243 1741.08 328.003 1742.2 329.229C1743.37 330.456 1745.02 331.069 1747.16 331.069C1749.5 331.069 1751.5 330.403 1753.16 329.069L1755.56 334.589Z" fill="black"/>
<rect x="-16.0015" y="227.069" width="124.448" height="124.448" rx="4" transform="rotate(45 -16.0015 227.069)" fill="#FDD900"/>
<rect x="-16.0015" y="237.842" width="109.016" height="109.016" rx="3" transform="rotate(45 -16.0015 237.842)" fill="#FDD900" stroke="black" stroke-width="2"/>
<path fill-rule="evenodd" clip-rule="evenodd" d="M-1.28522 341.069L24.9985 315.069L-1.28522 289.069L-4.94223 292.687L15.0986 312.511H-57.0015V317.627H15.0986L-4.94223 337.452L-1.28522 341.069Z" fill="#222222" stroke="#222222" stroke-width="4" stroke-linecap="square"/>
<rect x="1916" y="227.069" width="124.448" height="124.448" rx="4" transform="rotate(45 1916 227.069)" fill="#FDD900"/>
<rect x="1916" y="237.842" width="109.016" height="109.016" rx="3" transform="rotate(45 1916 237.842)" fill="#FDD900" stroke="black" stroke-width="2"/>
<path fill-rule="evenodd" clip-rule="evenodd" d="M1930.71 341.069L1957 315.069L1930.71 289.069L1927.06 292.687L1947.1 312.511H1875V317.627H1947.1L1927.06 337.452L1930.71 341.069Z" fill="#222222" stroke="#222222" stroke-width="4" stroke-linecap="square"/>
</g>
</svg>
