<svg width="420" height="420" viewBox="0 0 420 420" fill="none" xmlns="http://www.w3.org/2000/svg">
<path d="M203.25 6.74978C206.978 3.02198 213.022 3.02198 216.75 6.74978L413.25 203.25C416.978 206.978 416.978 213.022 413.25 216.75L216.75 413.25C213.022 416.978 206.978 416.978 203.25 413.25L6.7498 216.75C3.022 213.022 3.022 206.978 6.7498 203.25L203.25 6.74978Z" fill="#FDD900"/>
<path fill-rule="evenodd" clip-rule="evenodd" d="M387.208 206.291L213.375 32.4577C211.511 30.5938 208.489 30.5938 206.625 32.4577L32.7916 206.291C30.9277 208.155 30.9277 211.177 32.7916 213.041L206.625 386.874C208.489 388.738 211.511 388.738 213.375 386.874L387.208 213.041C389.072 211.177 389.072 208.155 387.208 206.291ZM216.75 29.0828C213.022 25.355 206.978 25.355 203.25 29.0828L29.4167 202.916C25.6889 206.644 25.6889 212.688 29.4167 216.416L203.25 390.249C206.978 393.977 213.022 393.977 216.75 390.249L390.583 216.416C394.311 212.688 394.311 206.644 390.583 202.916L216.75 29.0828Z" fill="black"/>
<path d="M240.52 209.72H260.2V254.36C254.44 258.947 247.72 262.467 240.04 264.92C232.36 267.373 224.467 268.6 216.36 268.6C204.947 268.6 194.653 266.147 185.48 261.24C176.307 256.227 169.107 249.347 163.88 240.6C158.653 231.853 156.04 221.987 156.04 211C156.04 200.013 158.653 190.147 163.88 181.4C169.107 172.653 176.307 165.827 185.48 160.92C194.76 155.907 205.16 153.4 216.68 153.4C226.067 153.4 234.6 154.947 242.28 158.04C249.96 161.133 256.413 165.667 261.64 171.64L248.52 184.44C239.987 175.907 229.693 171.64 217.64 171.64C209.747 171.64 202.707 173.293 196.52 176.6C190.44 179.907 185.64 184.547 182.12 190.52C178.707 196.493 177 203.32 177 211C177 218.467 178.707 225.187 182.12 231.16C185.64 237.133 190.44 241.827 196.52 245.24C202.707 248.653 209.693 250.36 217.48 250.36C226.227 250.36 233.907 248.44 240.52 244.6V209.72Z" fill="#222222"/>
</svg>
