<svg width="2687" height="264" viewBox="0 0 2687 264" fill="none" xmlns="http://www.w3.org/2000/svg">
<rect width="772" height="120" rx="16" fill="#FDD900"/>
<path d="M50.5 60L75.5 45.5662V74.4338L50.5 60ZM141.5 62.5L73 62.5V57.5L141.5 57.5V62.5Z" fill="#222222"/>
<path d="M182.22 74.98C179.367 74.98 176.78 74.3667 174.46 73.14C172.167 71.8867 170.353 70.1667 169.02 67.98C167.713 65.7667 167.06 63.2733 167.06 60.5C167.06 57.7267 167.713 55.2467 169.02 53.06C170.353 50.8467 172.167 49.1267 174.46 47.9C176.78 46.6467 179.38 46.02 182.26 46.02C184.687 46.02 186.873 46.4467 188.82 47.3C190.793 48.1533 192.447 49.38 193.78 50.98L189.62 54.82C187.727 52.6333 185.38 51.54 182.58 51.54C180.847 51.54 179.3 51.9267 177.94 52.7C176.58 53.4467 175.513 54.5 174.74 55.86C173.993 57.22 173.62 58.7667 173.62 60.5C173.62 62.2333 173.993 63.78 174.74 65.14C175.513 66.5 176.58 67.5667 177.94 68.34C179.3 69.0867 180.847 69.46 182.58 69.46C185.38 69.46 187.727 68.3533 189.62 66.14L193.78 69.98C192.447 71.6067 190.793 72.8467 188.82 73.7C186.847 74.5533 184.647 74.98 182.22 74.98ZM205.727 52.66C209.061 52.66 211.621 53.46 213.407 55.06C215.194 56.6333 216.087 59.02 216.087 62.22V74.5H210.247V71.82C209.074 73.82 206.887 74.82 203.687 74.82C202.034 74.82 200.594 74.54 199.367 73.98C198.167 73.42 197.247 72.6467 196.607 71.66C195.967 70.6733 195.647 69.5533 195.647 68.3C195.647 66.3 196.394 64.7267 197.887 63.58C199.407 62.4333 201.741 61.86 204.887 61.86H209.847C209.847 60.5 209.434 59.46 208.607 58.74C207.781 57.9933 206.541 57.62 204.887 57.62C203.741 57.62 202.607 57.8067 201.487 58.18C200.394 58.5267 199.461 59.0067 198.687 59.62L196.447 55.26C197.621 54.4333 199.021 53.7933 200.647 53.34C202.301 52.8867 203.994 52.66 205.727 52.66ZM205.247 70.62C206.314 70.62 207.261 70.38 208.087 69.9C208.914 69.3933 209.501 68.66 209.847 67.7V65.5H205.567C203.007 65.5 201.727 66.34 201.727 68.02C201.727 68.82 202.034 69.46 202.647 69.94C203.287 70.3933 204.154 70.62 205.247 70.62ZM221.508 52.98H227.708V61.38H237.068V52.98H243.308V74.5H237.068V66.46H227.708V74.5H221.508V52.98ZM258.761 66.34H255.521V74.5H249.281V52.98H255.521V61.34H258.881L264.721 52.98H271.361L263.841 63.3L271.881 74.5H264.521L258.761 66.34ZM292.83 58.1H285.55V74.5H279.35V58.1H272.07V52.98H292.83V58.1ZM294.846 60.74H306.166V65.74H294.846V60.74ZM337.195 46.5V74.5H330.755V51.78H318.115V74.5H311.675V46.5H337.195ZM364.576 63.82C364.576 63.9 364.536 64.46 364.456 65.5H348.176C348.47 66.8333 349.163 67.8867 350.256 68.66C351.35 69.4333 352.71 69.82 354.336 69.82C355.456 69.82 356.443 69.66 357.296 69.34C358.176 68.9933 358.99 68.46 359.736 67.74L363.056 71.34C361.03 73.66 358.07 74.82 354.176 74.82C351.75 74.82 349.603 74.3533 347.736 73.42C345.87 72.46 344.43 71.14 343.416 69.46C342.403 67.78 341.896 65.8733 341.896 63.74C341.896 61.6333 342.39 59.74 343.376 58.06C344.39 56.3533 345.763 55.0333 347.496 54.1C349.256 53.14 351.216 52.66 353.376 52.66C355.483 52.66 357.39 53.1133 359.096 54.02C360.803 54.9267 362.136 56.2333 363.096 57.94C364.083 59.62 364.576 61.58 364.576 63.82ZM353.416 57.38C352.003 57.38 350.816 57.78 349.856 58.58C348.896 59.38 348.31 60.4733 348.096 61.86H358.696C358.483 60.5 357.896 59.42 356.936 58.62C355.976 57.7933 354.803 57.38 353.416 57.38ZM386.697 58.1H379.417V74.5H373.217V58.1H365.937V52.98H386.697V58.1ZM410.045 63.82C410.045 63.9 410.005 64.46 409.925 65.5H393.645C393.938 66.8333 394.632 67.8867 395.725 68.66C396.818 69.4333 398.178 69.82 399.805 69.82C400.925 69.82 401.912 69.66 402.765 69.34C403.645 68.9933 404.458 68.46 405.205 67.74L408.525 71.34C406.498 73.66 403.538 74.82 399.645 74.82C397.218 74.82 395.072 74.3533 393.205 73.42C391.338 72.46 389.898 71.14 388.885 69.46C387.872 67.78 387.365 65.8733 387.365 63.74C387.365 61.6333 387.858 59.74 388.845 58.06C389.858 56.3533 391.232 55.0333 392.965 54.1C394.725 53.14 396.685 52.66 398.845 52.66C400.952 52.66 402.858 53.1133 404.565 54.02C406.272 54.9267 407.605 56.2333 408.565 57.94C409.552 59.62 410.045 61.58 410.045 63.82ZM398.885 57.38C397.472 57.38 396.285 57.78 395.325 58.58C394.365 59.38 393.778 60.4733 393.565 61.86H404.165C403.952 60.5 403.365 59.42 402.405 58.62C401.445 57.7933 400.272 57.38 398.885 57.38ZM427.508 52.66C429.508 52.66 431.321 53.1267 432.948 54.06C434.601 54.9667 435.895 56.26 436.828 57.94C437.761 59.5933 438.228 61.5267 438.228 63.74C438.228 65.9533 437.761 67.9 436.828 69.58C435.895 71.2333 434.601 72.5267 432.948 73.46C431.321 74.3667 429.508 74.82 427.508 74.82C424.761 74.82 422.601 73.9533 421.028 72.22V82.26H414.788V52.98H420.748V55.46C422.295 53.5933 424.548 52.66 427.508 52.66ZM426.428 69.7C428.028 69.7 429.335 69.1667 430.348 68.1C431.388 67.0067 431.908 65.5533 431.908 63.74C431.908 61.9267 431.388 60.4867 430.348 59.42C429.335 58.3267 428.028 57.78 426.428 57.78C424.828 57.78 423.508 58.3267 422.468 59.42C421.455 60.4867 420.948 61.9267 420.948 63.74C420.948 65.5533 421.455 67.0067 422.468 68.1C423.508 69.1667 424.828 69.7 426.428 69.7ZM455.042 54.46C457.095 54.46 458.895 54.8867 460.442 55.74C461.988 56.5667 463.175 57.74 464.002 59.26C464.855 60.78 465.282 62.54 465.282 64.54C465.282 66.5933 464.775 68.42 463.762 70.02C462.775 71.5933 461.388 72.82 459.602 73.7C457.815 74.5533 455.788 74.98 453.522 74.98C449.762 74.98 446.802 73.78 444.642 71.38C442.508 68.9533 441.442 65.4067 441.442 60.74C441.442 56.42 442.375 52.98 444.242 50.42C446.135 47.8333 449.028 46.14 452.922 45.34L463.162 43.3L464.002 48.66L454.962 50.46C452.508 50.94 450.682 51.74 449.482 52.86C448.308 53.98 447.615 55.5667 447.402 57.62C448.335 56.6067 449.455 55.8333 450.762 55.3C452.068 54.74 453.495 54.46 455.042 54.46ZM453.562 70.14C455.162 70.14 456.442 69.62 457.402 68.58C458.388 67.54 458.882 66.22 458.882 64.62C458.882 62.9933 458.388 61.7 457.402 60.74C456.442 59.78 455.162 59.3 453.562 59.3C451.935 59.3 450.628 59.78 449.642 60.74C448.655 61.7 448.162 62.9933 448.162 64.62C448.162 66.2467 448.668 67.58 449.682 68.62C450.695 69.6333 451.988 70.14 453.562 70.14ZM490.49 52.98L480.77 75.82C479.783 78.3 478.556 80.0467 477.09 81.06C475.65 82.0733 473.903 82.58 471.85 82.58C470.73 82.58 469.623 82.4067 468.53 82.06C467.436 81.7133 466.543 81.2333 465.85 80.62L468.13 76.18C468.61 76.6067 469.156 76.94 469.77 77.18C470.41 77.42 471.036 77.54 471.65 77.54C472.503 77.54 473.196 77.3267 473.73 76.9C474.263 76.5 474.743 75.82 475.17 74.86L475.25 74.66L465.93 52.98H472.37L478.41 67.58L484.49 52.98H490.49ZM506.18 52.66C508.18 52.66 509.993 53.1267 511.62 54.06C513.273 54.9667 514.567 56.26 515.5 57.94C516.433 59.5933 516.9 61.5267 516.9 63.74C516.9 65.9533 516.433 67.9 515.5 69.58C514.567 71.2333 513.273 72.5267 511.62 73.46C509.993 74.3667 508.18 74.82 506.18 74.82C503.433 74.82 501.273 73.9533 499.7 72.22V82.26H493.46V52.98H499.42V55.46C500.967 53.5933 503.22 52.66 506.18 52.66ZM505.1 69.7C506.7 69.7 508.007 69.1667 509.02 68.1C510.06 67.0067 510.58 65.5533 510.58 63.74C510.58 61.9267 510.06 60.4867 509.02 59.42C508.007 58.3267 506.7 57.78 505.1 57.78C503.5 57.78 502.18 58.3267 501.14 59.42C500.127 60.4867 499.62 61.9267 499.62 63.74C499.62 65.5533 500.127 67.0067 501.14 68.1C502.18 69.1667 503.5 69.7 505.1 69.7ZM538.513 58.1H527.473V74.5H521.273V52.98H538.513V58.1ZM596.285 46.5V50.7L585.885 74.5H578.845L588.885 51.78H579.605V56.34H573.845V46.5H596.285ZM610.388 74.98C608.068 74.98 606.001 74.4067 604.188 73.26C602.375 72.1133 600.948 70.46 599.908 68.3C598.895 66.1133 598.388 63.5133 598.388 60.5C598.388 57.4867 598.895 54.9 599.908 52.74C600.948 50.5533 602.375 48.8867 604.188 47.74C606.001 46.5933 608.068 46.02 610.388 46.02C612.708 46.02 614.775 46.5933 616.588 47.74C618.401 48.8867 619.815 50.5533 620.828 52.74C621.868 54.9 622.388 57.4867 622.388 60.5C622.388 63.5133 621.868 66.1133 620.828 68.3C619.815 70.46 618.401 72.1133 616.588 73.26C614.775 74.4067 612.708 74.98 610.388 74.98ZM610.388 69.5C612.095 69.5 613.428 68.7667 614.388 67.3C615.375 65.8333 615.868 63.5667 615.868 60.5C615.868 57.4333 615.375 55.1667 614.388 53.7C613.428 52.2333 612.095 51.5 610.388 51.5C608.708 51.5 607.375 52.2333 606.388 53.7C605.428 55.1667 604.948 57.4333 604.948 60.5C604.948 63.5667 605.428 65.8333 606.388 67.3C607.375 68.7667 608.708 69.5 610.388 69.5ZM637.537 74.98C635.217 74.98 633.15 74.4067 631.337 73.26C629.523 72.1133 628.097 70.46 627.057 68.3C626.043 66.1133 625.537 63.5133 625.537 60.5C625.537 57.4867 626.043 54.9 627.057 52.74C628.097 50.5533 629.523 48.8867 631.337 47.74C633.15 46.5933 635.217 46.02 637.537 46.02C639.857 46.02 641.923 46.5933 643.737 47.74C645.55 48.8867 646.963 50.5533 647.977 52.74C649.017 54.9 649.537 57.4867 649.537 60.5C649.537 63.5133 649.017 66.1133 647.977 68.3C646.963 70.46 645.55 72.1133 643.737 73.26C641.923 74.4067 639.857 74.98 637.537 74.98ZM637.537 69.5C639.243 69.5 640.577 68.7667 641.537 67.3C642.523 65.8333 643.017 63.5667 643.017 60.5C643.017 57.4333 642.523 55.1667 641.537 53.7C640.577 52.2333 639.243 51.5 637.537 51.5C635.857 51.5 634.523 52.2333 633.537 53.7C632.577 55.1667 632.097 57.4333 632.097 60.5C632.097 63.5667 632.577 65.8333 633.537 67.3C634.523 68.7667 635.857 69.5 637.537 69.5ZM674.933 66.34H671.693V74.5H665.453V52.98H671.693V61.34H675.053L680.893 52.98H687.533L680.013 63.3L688.053 74.5H680.693L674.933 66.34ZM712.117 74.5V61.62L705.677 72.42H703.037L696.757 61.58V74.5H691.117V52.98H697.637L704.517 65.42L711.837 52.98H717.677L717.757 74.5H712.117Z" fill="#222222"/>
<rect x="10" y="10" width="752" height="100" rx="11" stroke="#222222" stroke-width="4"/>
<rect x="1349" y="144" width="772" height="120" rx="16" fill="#FDD900"/>
<path d="M1399.5 204L1424.5 189.566V218.434L1399.5 204ZM1490.5 206.5H1422V201.5H1490.5V206.5Z" fill="#222222"/>
<path d="M1531.22 218.98C1528.37 218.98 1525.78 218.367 1523.46 217.14C1521.17 215.887 1519.35 214.167 1518.02 211.98C1516.71 209.767 1516.06 207.273 1516.06 204.5C1516.06 201.727 1516.71 199.247 1518.02 197.06C1519.35 194.847 1521.17 193.127 1523.46 191.9C1525.78 190.647 1528.38 190.02 1531.26 190.02C1533.69 190.02 1535.87 190.447 1537.82 191.3C1539.79 192.153 1541.45 193.38 1542.78 194.98L1538.62 198.82C1536.73 196.633 1534.38 195.54 1531.58 195.54C1529.85 195.54 1528.3 195.927 1526.94 196.7C1525.58 197.447 1524.51 198.5 1523.74 199.86C1522.99 201.22 1522.62 202.767 1522.62 204.5C1522.62 206.233 1522.99 207.78 1523.74 209.14C1524.51 210.5 1525.58 211.567 1526.94 212.34C1528.3 213.087 1529.85 213.46 1531.58 213.46C1534.38 213.46 1536.73 212.353 1538.62 210.14L1542.78 213.98C1541.45 215.607 1539.79 216.847 1537.82 217.7C1535.85 218.553 1533.65 218.98 1531.22 218.98ZM1554.73 196.66C1558.06 196.66 1560.62 197.46 1562.41 199.06C1564.19 200.633 1565.09 203.02 1565.09 206.22V218.5H1559.25V215.82C1558.07 217.82 1555.89 218.82 1552.69 218.82C1551.03 218.82 1549.59 218.54 1548.37 217.98C1547.17 217.42 1546.25 216.647 1545.61 215.66C1544.97 214.673 1544.65 213.553 1544.65 212.3C1544.65 210.3 1545.39 208.727 1546.89 207.58C1548.41 206.433 1550.74 205.86 1553.89 205.86H1558.85C1558.85 204.5 1558.43 203.46 1557.61 202.74C1556.78 201.993 1555.54 201.62 1553.89 201.62C1552.74 201.62 1551.61 201.807 1550.49 202.18C1549.39 202.527 1548.46 203.007 1547.69 203.62L1545.45 199.26C1546.62 198.433 1548.02 197.793 1549.65 197.34C1551.3 196.887 1552.99 196.66 1554.73 196.66ZM1554.25 214.62C1555.31 214.62 1556.26 214.38 1557.09 213.9C1557.91 213.393 1558.5 212.66 1558.85 211.7V209.5H1554.57C1552.01 209.5 1550.73 210.34 1550.73 212.02C1550.73 212.82 1551.03 213.46 1551.65 213.94C1552.29 214.393 1553.15 214.62 1554.25 214.62ZM1570.51 196.98H1576.71V205.38H1586.07V196.98H1592.31V218.5H1586.07V210.46H1576.71V218.5H1570.51V196.98ZM1607.76 210.34H1604.52V218.5H1598.28V196.98H1604.52V205.34H1607.88L1613.72 196.98H1620.36L1612.84 207.3L1620.88 218.5H1613.52L1607.76 210.34ZM1641.83 202.1H1634.55V218.5H1628.35V202.1H1621.07V196.98H1641.83V202.1ZM1643.85 204.74H1655.17V209.74H1643.85V204.74ZM1686.2 190.5V218.5H1679.76V195.78H1667.12V218.5H1660.68V190.5H1686.2ZM1713.58 207.82C1713.58 207.9 1713.54 208.46 1713.46 209.5H1697.18C1697.47 210.833 1698.16 211.887 1699.26 212.66C1700.35 213.433 1701.71 213.82 1703.34 213.82C1704.46 213.82 1705.44 213.66 1706.3 213.34C1707.18 212.993 1707.99 212.46 1708.74 211.74L1712.06 215.34C1710.03 217.66 1707.07 218.82 1703.18 218.82C1700.75 218.82 1698.6 218.353 1696.74 217.42C1694.87 216.46 1693.43 215.14 1692.42 213.46C1691.4 211.78 1690.9 209.873 1690.9 207.74C1690.9 205.633 1691.39 203.74 1692.38 202.06C1693.39 200.353 1694.76 199.033 1696.5 198.1C1698.26 197.14 1700.22 196.66 1702.38 196.66C1704.48 196.66 1706.39 197.113 1708.1 198.02C1709.8 198.927 1711.14 200.233 1712.1 201.94C1713.08 203.62 1713.58 205.58 1713.58 207.82ZM1702.42 201.38C1701 201.38 1699.82 201.78 1698.86 202.58C1697.9 203.38 1697.31 204.473 1697.1 205.86H1707.7C1707.48 204.5 1706.9 203.42 1705.94 202.62C1704.98 201.793 1703.8 201.38 1702.42 201.38ZM1735.7 202.1H1728.42V218.5H1722.22V202.1H1714.94V196.98H1735.7V202.1ZM1759.05 207.82C1759.05 207.9 1759.01 208.46 1758.93 209.5H1742.65C1742.94 210.833 1743.63 211.887 1744.73 212.66C1745.82 213.433 1747.18 213.82 1748.81 213.82C1749.93 213.82 1750.91 213.66 1751.77 213.34C1752.65 212.993 1753.46 212.46 1754.21 211.74L1757.53 215.34C1755.5 217.66 1752.54 218.82 1748.65 218.82C1746.22 218.82 1744.07 218.353 1742.21 217.42C1740.34 216.46 1738.9 215.14 1737.89 213.46C1736.87 211.78 1736.37 209.873 1736.37 207.74C1736.37 205.633 1736.86 203.74 1737.85 202.06C1738.86 200.353 1740.23 199.033 1741.97 198.1C1743.73 197.14 1745.69 196.66 1747.85 196.66C1749.95 196.66 1751.86 197.113 1753.57 198.02C1755.27 198.927 1756.61 200.233 1757.57 201.94C1758.55 203.62 1759.05 205.58 1759.05 207.82ZM1747.89 201.38C1746.47 201.38 1745.29 201.78 1744.33 202.58C1743.37 203.38 1742.78 204.473 1742.57 205.86H1753.17C1752.95 204.5 1752.37 203.42 1751.41 202.62C1750.45 201.793 1749.27 201.38 1747.89 201.38ZM1776.51 196.66C1778.51 196.66 1780.32 197.127 1781.95 198.06C1783.6 198.967 1784.89 200.26 1785.83 201.94C1786.76 203.593 1787.23 205.527 1787.23 207.74C1787.23 209.953 1786.76 211.9 1785.83 213.58C1784.89 215.233 1783.6 216.527 1781.95 217.46C1780.32 218.367 1778.51 218.82 1776.51 218.82C1773.76 218.82 1771.6 217.953 1770.03 216.22V226.26H1763.79V196.98H1769.75V199.46C1771.29 197.593 1773.55 196.66 1776.51 196.66ZM1775.43 213.7C1777.03 213.7 1778.33 213.167 1779.35 212.1C1780.39 211.007 1780.91 209.553 1780.91 207.74C1780.91 205.927 1780.39 204.487 1779.35 203.42C1778.33 202.327 1777.03 201.78 1775.43 201.78C1773.83 201.78 1772.51 202.327 1771.47 203.42C1770.45 204.487 1769.95 205.927 1769.95 207.74C1769.95 209.553 1770.45 211.007 1771.47 212.1C1772.51 213.167 1773.83 213.7 1775.43 213.7ZM1804.04 198.46C1806.09 198.46 1807.89 198.887 1809.44 199.74C1810.99 200.567 1812.17 201.74 1813 203.26C1813.85 204.78 1814.28 206.54 1814.28 208.54C1814.28 210.593 1813.77 212.42 1812.76 214.02C1811.77 215.593 1810.39 216.82 1808.6 217.7C1806.81 218.553 1804.79 218.98 1802.52 218.98C1798.76 218.98 1795.8 217.78 1793.64 215.38C1791.51 212.953 1790.44 209.407 1790.44 204.74C1790.44 200.42 1791.37 196.98 1793.24 194.42C1795.13 191.833 1798.03 190.14 1801.92 189.34L1812.16 187.3L1813 192.66L1803.96 194.46C1801.51 194.94 1799.68 195.74 1798.48 196.86C1797.31 197.98 1796.61 199.567 1796.4 201.62C1797.33 200.607 1798.45 199.833 1799.76 199.3C1801.07 198.74 1802.49 198.46 1804.04 198.46ZM1802.56 214.14C1804.16 214.14 1805.44 213.62 1806.4 212.58C1807.39 211.54 1807.88 210.22 1807.88 208.62C1807.88 206.993 1807.39 205.7 1806.4 204.74C1805.44 203.78 1804.16 203.3 1802.56 203.3C1800.93 203.3 1799.63 203.78 1798.64 204.74C1797.65 205.7 1797.16 206.993 1797.16 208.62C1797.16 210.247 1797.67 211.58 1798.68 212.62C1799.69 213.633 1800.99 214.14 1802.56 214.14ZM1839.49 196.98L1829.77 219.82C1828.78 222.3 1827.56 224.047 1826.09 225.06C1824.65 226.073 1822.9 226.58 1820.85 226.58C1819.73 226.58 1818.62 226.407 1817.53 226.06C1816.44 225.713 1815.54 225.233 1814.85 224.62L1817.13 220.18C1817.61 220.607 1818.16 220.94 1818.77 221.18C1819.41 221.42 1820.04 221.54 1820.65 221.54C1821.5 221.54 1822.2 221.327 1822.73 220.9C1823.26 220.5 1823.74 219.82 1824.17 218.86L1824.25 218.66L1814.93 196.98H1821.37L1827.41 211.58L1833.49 196.98H1839.49ZM1855.18 196.66C1857.18 196.66 1858.99 197.127 1860.62 198.06C1862.27 198.967 1863.57 200.26 1864.5 201.94C1865.43 203.593 1865.9 205.527 1865.9 207.74C1865.9 209.953 1865.43 211.9 1864.5 213.58C1863.57 215.233 1862.27 216.527 1860.62 217.46C1858.99 218.367 1857.18 218.82 1855.18 218.82C1852.43 218.82 1850.27 217.953 1848.7 216.22V226.26H1842.46V196.98H1848.42V199.46C1849.97 197.593 1852.22 196.66 1855.18 196.66ZM1854.1 213.7C1855.7 213.7 1857.01 213.167 1858.02 212.1C1859.06 211.007 1859.58 209.553 1859.58 207.74C1859.58 205.927 1859.06 204.487 1858.02 203.42C1857.01 202.327 1855.7 201.78 1854.1 201.78C1852.5 201.78 1851.18 202.327 1850.14 203.42C1849.13 204.487 1848.62 205.927 1848.62 207.74C1848.62 209.553 1849.13 211.007 1850.14 212.1C1851.18 213.167 1852.5 213.7 1854.1 213.7ZM1887.51 202.1H1876.47V218.5H1870.27V196.98H1887.51V202.1ZM1945.28 190.5V194.7L1934.88 218.5H1927.84L1937.88 195.78H1928.6V200.34H1922.84V190.5H1945.28ZM1959.39 218.98C1957.07 218.98 1955 218.407 1953.19 217.26C1951.37 216.113 1949.95 214.46 1948.91 212.3C1947.89 210.113 1947.39 207.513 1947.39 204.5C1947.39 201.487 1947.89 198.9 1948.91 196.74C1949.95 194.553 1951.37 192.887 1953.19 191.74C1955 190.593 1957.07 190.02 1959.39 190.02C1961.71 190.02 1963.77 190.593 1965.59 191.74C1967.4 192.887 1968.81 194.553 1969.83 196.74C1970.87 198.9 1971.39 201.487 1971.39 204.5C1971.39 207.513 1970.87 210.113 1969.83 212.3C1968.81 214.46 1967.4 216.113 1965.59 217.26C1963.77 218.407 1961.71 218.98 1959.39 218.98ZM1959.39 213.5C1961.09 213.5 1962.43 212.767 1963.39 211.3C1964.37 209.833 1964.87 207.567 1964.87 204.5C1964.87 201.433 1964.37 199.167 1963.39 197.7C1962.43 196.233 1961.09 195.5 1959.39 195.5C1957.71 195.5 1956.37 196.233 1955.39 197.7C1954.43 199.167 1953.95 201.433 1953.95 204.5C1953.95 207.567 1954.43 209.833 1955.39 211.3C1956.37 212.767 1957.71 213.5 1959.39 213.5ZM1986.54 218.98C1984.22 218.98 1982.15 218.407 1980.34 217.26C1978.52 216.113 1977.1 214.46 1976.06 212.3C1975.04 210.113 1974.54 207.513 1974.54 204.5C1974.54 201.487 1975.04 198.9 1976.06 196.74C1977.1 194.553 1978.52 192.887 1980.34 191.74C1982.15 190.593 1984.22 190.02 1986.54 190.02C1988.86 190.02 1990.92 190.593 1992.74 191.74C1994.55 192.887 1995.96 194.553 1996.98 196.74C1998.02 198.9 1998.54 201.487 1998.54 204.5C1998.54 207.513 1998.02 210.113 1996.98 212.3C1995.96 214.46 1994.55 216.113 1992.74 217.26C1990.92 218.407 1988.86 218.98 1986.54 218.98ZM1986.54 213.5C1988.24 213.5 1989.58 212.767 1990.54 211.3C1991.52 209.833 1992.02 207.567 1992.02 204.5C1992.02 201.433 1991.52 199.167 1990.54 197.7C1989.58 196.233 1988.24 195.5 1986.54 195.5C1984.86 195.5 1983.52 196.233 1982.54 197.7C1981.58 199.167 1981.1 201.433 1981.1 204.5C1981.1 207.567 1981.58 209.833 1982.54 211.3C1983.52 212.767 1984.86 213.5 1986.54 213.5ZM2023.93 210.34H2020.69V218.5H2014.45V196.98H2020.69V205.34H2024.05L2029.89 196.98H2036.53L2029.01 207.3L2037.05 218.5H2029.69L2023.93 210.34ZM2061.12 218.5V205.62L2054.68 216.42H2052.04L2045.76 205.58V218.5H2040.12V196.98H2046.64L2053.52 209.42L2060.84 196.98H2066.68L2066.76 218.5H2061.12Z" fill="#222222"/>
<rect x="1359" y="154" width="752" height="100" rx="11" stroke="#222222" stroke-width="4"/>
<rect x="510" y="144" width="815" height="120" rx="16" fill="#FDD900"/>
<path d="M567 204L592 189.566V218.434L567 204ZM658 206.5H589.5V201.5H658V206.5Z" fill="#222222"/>
<path d="M711.16 190.5V218.5H704.68V207.02H691.96V218.5H685.48V190.5H691.96V201.54H704.68V190.5H711.16ZM717.695 196.98H723.895V209.78L734.375 196.98H740.095V218.5H733.895V205.7L723.455 218.5H717.695V196.98ZM767.414 210.34H764.414V218.5H758.254V210.34H755.254L750.694 218.5H743.334L750.094 207.38L743.814 196.98H750.414L755.174 205.34H758.254V196.98H764.414V205.34H767.454L772.254 196.98H778.854L772.574 207.38L779.374 218.5H771.974L767.414 210.34ZM782.617 196.98H788.817V205.38H798.177V196.98H804.417V218.5H798.177V210.46H788.817V218.5H782.617V196.98ZM810.391 196.98H816.591V209.78L827.071 196.98H832.791V218.5H826.591V205.7L816.151 218.5H810.391V196.98ZM838.789 196.98H844.989V209.78L855.469 196.98H861.189V218.5H854.989V205.7L844.549 218.5H838.789V196.98ZM849.589 194.66C844.896 194.66 842.536 192.593 842.509 188.46H846.589C846.616 189.393 846.869 190.127 847.349 190.66C847.856 191.167 848.589 191.42 849.549 191.42C850.509 191.42 851.242 191.167 851.749 190.66C852.282 190.127 852.549 189.393 852.549 188.46H856.709C856.682 192.593 854.309 194.66 849.589 194.66ZM904.676 190.5V218.5H898.196V207.02H885.476V218.5H878.996V190.5H885.476V201.54H898.196V190.5H904.676ZM921.291 218.82C919.024 218.82 916.984 218.353 915.171 217.42C913.384 216.46 911.984 215.14 910.971 213.46C909.958 211.78 909.451 209.873 909.451 207.74C909.451 205.607 909.958 203.7 910.971 202.02C911.984 200.34 913.384 199.033 915.171 198.1C916.984 197.14 919.024 196.66 921.291 196.66C923.558 196.66 925.584 197.14 927.371 198.1C929.158 199.033 930.558 200.34 931.571 202.02C932.584 203.7 933.091 205.607 933.091 207.74C933.091 209.873 932.584 211.78 931.571 213.46C930.558 215.14 929.158 216.46 927.371 217.42C925.584 218.353 923.558 218.82 921.291 218.82ZM921.291 213.7C922.891 213.7 924.198 213.167 925.211 212.1C926.251 211.007 926.771 209.553 926.771 207.74C926.771 205.927 926.251 204.487 925.211 203.42C924.198 202.327 922.891 201.78 921.291 201.78C919.691 201.78 918.371 202.327 917.331 203.42C916.291 204.487 915.771 205.927 915.771 207.74C915.771 209.553 916.291 211.007 917.331 212.1C918.371 213.167 919.691 213.7 921.291 213.7ZM953.823 207.26C956.356 208.113 957.623 209.82 957.623 212.38C957.623 214.327 956.889 215.833 955.423 216.9C953.956 217.967 951.769 218.5 948.863 218.5H937.383V196.98H948.383C951.076 196.98 953.183 197.473 954.703 198.46C956.223 199.42 956.983 200.78 956.983 202.54C956.983 203.607 956.703 204.553 956.143 205.38C955.609 206.18 954.836 206.807 953.823 207.26ZM943.103 205.82H947.823C950.009 205.82 951.103 205.047 951.103 203.5C951.103 201.98 950.009 201.22 947.823 201.22H943.103V205.82ZM948.343 214.26C950.636 214.26 951.783 213.473 951.783 211.9C951.783 211.073 951.516 210.473 950.983 210.1C950.449 209.7 949.609 209.5 948.463 209.5H943.103V214.26H948.343ZM979.506 202.1H968.466V218.5H962.266V196.98H979.506V202.1ZM991.994 218.82C989.727 218.82 987.687 218.353 985.874 217.42C984.087 216.46 982.687 215.14 981.674 213.46C980.661 211.78 980.154 209.873 980.154 207.74C980.154 205.607 980.661 203.7 981.674 202.02C982.687 200.34 984.087 199.033 985.874 198.1C987.687 197.14 989.727 196.66 991.994 196.66C994.261 196.66 996.287 197.14 998.074 198.1C999.861 199.033 1001.26 200.34 1002.27 202.02C1003.29 203.7 1003.79 205.607 1003.79 207.74C1003.79 209.873 1003.29 211.78 1002.27 213.46C1001.26 215.14 999.861 216.46 998.074 217.42C996.287 218.353 994.261 218.82 991.994 218.82ZM991.994 213.7C993.594 213.7 994.901 213.167 995.914 212.1C996.954 211.007 997.474 209.553 997.474 207.74C997.474 205.927 996.954 204.487 995.914 203.42C994.901 202.327 993.594 201.78 991.994 201.78C990.394 201.78 989.074 202.327 988.034 203.42C986.994 204.487 986.474 205.927 986.474 207.74C986.474 209.553 986.994 211.007 988.034 212.1C989.074 213.167 990.394 213.7 991.994 213.7ZM1020.77 196.66C1022.77 196.66 1024.58 197.127 1026.21 198.06C1027.86 198.967 1029.15 200.26 1030.09 201.94C1031.02 203.593 1031.49 205.527 1031.49 207.74C1031.49 209.953 1031.02 211.9 1030.09 213.58C1029.15 215.233 1027.86 216.527 1026.21 217.46C1024.58 218.367 1022.77 218.82 1020.77 218.82C1018.02 218.82 1015.86 217.953 1014.29 216.22V226.26H1008.05V196.98H1014.01V199.46C1015.55 197.593 1017.81 196.66 1020.77 196.66ZM1019.69 213.7C1021.29 213.7 1022.59 213.167 1023.61 212.1C1024.65 211.007 1025.17 209.553 1025.17 207.74C1025.17 205.927 1024.65 204.487 1023.61 203.42C1022.59 202.327 1021.29 201.78 1019.69 201.78C1018.09 201.78 1016.77 202.327 1015.73 203.42C1014.71 204.487 1014.21 205.927 1014.21 207.74C1014.21 209.553 1014.71 211.007 1015.73 212.1C1016.77 213.167 1018.09 213.7 1019.69 213.7ZM1045.94 218.82C1043.67 218.82 1041.63 218.353 1039.82 217.42C1038.03 216.46 1036.63 215.14 1035.62 213.46C1034.61 211.78 1034.1 209.873 1034.1 207.74C1034.1 205.607 1034.61 203.7 1035.62 202.02C1036.63 200.34 1038.03 199.033 1039.82 198.1C1041.63 197.14 1043.67 196.66 1045.94 196.66C1048.21 196.66 1050.23 197.14 1052.02 198.1C1053.81 199.033 1055.21 200.34 1056.22 202.02C1057.23 203.7 1057.74 205.607 1057.74 207.74C1057.74 209.873 1057.23 211.78 1056.22 213.46C1055.21 215.14 1053.81 216.46 1052.02 217.42C1050.23 218.353 1048.21 218.82 1045.94 218.82ZM1045.94 213.7C1047.54 213.7 1048.85 213.167 1049.86 212.1C1050.9 211.007 1051.42 209.553 1051.42 207.74C1051.42 205.927 1050.9 204.487 1049.86 203.42C1048.85 202.327 1047.54 201.78 1045.94 201.78C1044.34 201.78 1043.02 202.327 1041.98 203.42C1040.94 204.487 1040.42 205.927 1040.42 207.74C1040.42 209.553 1040.94 211.007 1041.98 212.1C1043.02 213.167 1044.34 213.7 1045.94 213.7ZM1085.84 213.38V223.14H1080.04V218.5H1064.92V223.14H1059.12V213.38H1060C1061.33 213.353 1062.25 212.567 1062.76 211.02C1063.27 209.473 1063.59 207.273 1063.72 204.42L1064 196.98H1082.76V213.38H1085.84ZM1069.36 204.86C1069.28 207.047 1069.11 208.833 1068.84 210.22C1068.6 211.607 1068.13 212.66 1067.44 213.38H1076.52V202.1H1069.48L1069.36 204.86ZM1136.62 212.62H1132.06V218.5H1125.74V212.62H1110.66V208.26L1123.86 190.5H1130.66L1118.42 207.34H1125.94V202.1H1132.06V207.34H1136.62V212.62ZM1159.4 213.22V218.5H1138.24V214.3L1149.04 204.1C1150.19 203.007 1150.96 202.073 1151.36 201.3C1151.76 200.5 1151.96 199.713 1151.96 198.94C1151.96 197.82 1151.58 196.967 1150.8 196.38C1150.06 195.767 1148.95 195.46 1147.48 195.46C1146.26 195.46 1145.15 195.7 1144.16 196.18C1143.18 196.633 1142.35 197.327 1141.68 198.26L1136.96 195.22C1138.06 193.593 1139.56 192.327 1141.48 191.42C1143.4 190.487 1145.6 190.02 1148.08 190.02C1150.16 190.02 1151.98 190.367 1153.52 191.06C1155.1 191.727 1156.31 192.687 1157.16 193.94C1158.04 195.167 1158.48 196.62 1158.48 198.3C1158.48 199.82 1158.16 201.247 1157.52 202.58C1156.88 203.913 1155.64 205.433 1153.8 207.14L1147.36 213.22H1159.4ZM1174 218.98C1171.68 218.98 1169.61 218.407 1167.8 217.26C1165.98 216.113 1164.56 214.46 1163.52 212.3C1162.5 210.113 1162 207.513 1162 204.5C1162 201.487 1162.5 198.9 1163.52 196.74C1164.56 194.553 1165.98 192.887 1167.8 191.74C1169.61 190.593 1171.68 190.02 1174 190.02C1176.32 190.02 1178.38 190.593 1180.2 191.74C1182.01 192.887 1183.42 194.553 1184.44 196.74C1185.48 198.9 1186 201.487 1186 204.5C1186 207.513 1185.48 210.113 1184.44 212.3C1183.42 214.46 1182.01 216.113 1180.2 217.26C1178.38 218.407 1176.32 218.98 1174 218.98ZM1174 213.5C1175.7 213.5 1177.04 212.767 1178 211.3C1178.98 209.833 1179.48 207.567 1179.48 204.5C1179.48 201.433 1178.98 199.167 1178 197.7C1177.04 196.233 1175.7 195.5 1174 195.5C1172.32 195.5 1170.98 196.233 1170 197.7C1169.04 199.167 1168.56 201.433 1168.56 204.5C1168.56 207.567 1169.04 209.833 1170 211.3C1170.98 212.767 1172.32 213.5 1174 213.5ZM1211.39 210.34H1208.15V218.5H1201.91V196.98H1208.15V205.34H1211.51L1217.35 196.98H1223.99L1216.47 207.3L1224.51 218.5H1217.15L1211.39 210.34ZM1248.58 218.5V205.62L1242.14 216.42H1239.5L1233.22 205.58V218.5H1227.58V196.98H1234.1L1240.98 209.42L1248.3 196.98H1254.14L1254.22 218.5H1248.58Z" fill="#222222"/>
<rect x="520" y="154" width="795" height="100" rx="11" stroke="#222222" stroke-width="4"/>
<rect x="1848" width="815" height="120" rx="16" fill="#FDD900"/>
<path d="M1905 60L1930 45.5662V74.4338L1905 60ZM1996 62.5L1927.5 62.5V57.5L1996 57.5V62.5Z" fill="#222222"/>
<path d="M2049.16 46.5V74.5H2042.68V63.02H2029.96V74.5H2023.48V46.5H2029.96V57.54H2042.68V46.5H2049.16ZM2055.7 52.98H2061.9V65.78L2072.38 52.98H2078.1V74.5H2071.9V61.7L2061.46 74.5H2055.7V52.98ZM2105.41 66.34H2102.41V74.5H2096.25V66.34H2093.25L2088.69 74.5H2081.33L2088.09 63.38L2081.81 52.98H2088.41L2093.17 61.34H2096.25V52.98H2102.41V61.34H2105.45L2110.25 52.98H2116.85L2110.57 63.38L2117.37 74.5H2109.97L2105.41 66.34ZM2120.62 52.98H2126.82V61.38H2136.18V52.98H2142.42V74.5H2136.18V66.46H2126.82V74.5H2120.62V52.98ZM2148.39 52.98H2154.59V65.78L2165.07 52.98H2170.79V74.5H2164.59V61.7L2154.15 74.5H2148.39V52.98ZM2176.79 52.98H2182.99V65.78L2193.47 52.98H2199.19V74.5H2192.99V61.7L2182.55 74.5H2176.79V52.98ZM2187.59 50.66C2182.9 50.66 2180.54 48.5933 2180.51 44.46H2184.59C2184.62 45.3933 2184.87 46.1267 2185.35 46.66C2185.86 47.1667 2186.59 47.42 2187.55 47.42C2188.51 47.42 2189.24 47.1667 2189.75 46.66C2190.28 46.1267 2190.55 45.3933 2190.55 44.46H2194.71C2194.68 48.5933 2192.31 50.66 2187.59 50.66ZM2242.68 46.5V74.5H2236.2V63.02H2223.48V74.5H2217V46.5H2223.48V57.54H2236.2V46.5H2242.68ZM2259.29 74.82C2257.02 74.82 2254.98 74.3533 2253.17 73.42C2251.38 72.46 2249.98 71.14 2248.97 69.46C2247.96 67.78 2247.45 65.8733 2247.45 63.74C2247.45 61.6067 2247.96 59.7 2248.97 58.02C2249.98 56.34 2251.38 55.0333 2253.17 54.1C2254.98 53.14 2257.02 52.66 2259.29 52.66C2261.56 52.66 2263.58 53.14 2265.37 54.1C2267.16 55.0333 2268.56 56.34 2269.57 58.02C2270.58 59.7 2271.09 61.6067 2271.09 63.74C2271.09 65.8733 2270.58 67.78 2269.57 69.46C2268.56 71.14 2267.16 72.46 2265.37 73.42C2263.58 74.3533 2261.56 74.82 2259.29 74.82ZM2259.29 69.7C2260.89 69.7 2262.2 69.1667 2263.21 68.1C2264.25 67.0067 2264.77 65.5533 2264.77 63.74C2264.77 61.9267 2264.25 60.4867 2263.21 59.42C2262.2 58.3267 2260.89 57.78 2259.29 57.78C2257.69 57.78 2256.37 58.3267 2255.33 59.42C2254.29 60.4867 2253.77 61.9267 2253.77 63.74C2253.77 65.5533 2254.29 67.0067 2255.33 68.1C2256.37 69.1667 2257.69 69.7 2259.29 69.7ZM2291.82 63.26C2294.36 64.1133 2295.62 65.82 2295.62 68.38C2295.62 70.3267 2294.89 71.8333 2293.42 72.9C2291.96 73.9667 2289.77 74.5 2286.86 74.5H2275.38V52.98H2286.38C2289.08 52.98 2291.18 53.4733 2292.7 54.46C2294.22 55.42 2294.98 56.78 2294.98 58.54C2294.98 59.6067 2294.7 60.5533 2294.14 61.38C2293.61 62.18 2292.84 62.8067 2291.82 63.26ZM2281.1 61.82H2285.82C2288.01 61.82 2289.1 61.0467 2289.1 59.5C2289.1 57.98 2288.01 57.22 2285.82 57.22H2281.1V61.82ZM2286.34 70.26C2288.64 70.26 2289.78 69.4733 2289.78 67.9C2289.78 67.0733 2289.52 66.4733 2288.98 66.1C2288.45 65.7 2287.61 65.5 2286.46 65.5H2281.1V70.26H2286.34ZM2317.51 58.1H2306.47V74.5H2300.27V52.98H2317.51V58.1ZM2329.99 74.82C2327.73 74.82 2325.69 74.3533 2323.87 73.42C2322.09 72.46 2320.69 71.14 2319.67 69.46C2318.66 67.78 2318.15 65.8733 2318.15 63.74C2318.15 61.6067 2318.66 59.7 2319.67 58.02C2320.69 56.34 2322.09 55.0333 2323.87 54.1C2325.69 53.14 2327.73 52.66 2329.99 52.66C2332.26 52.66 2334.29 53.14 2336.07 54.1C2337.86 55.0333 2339.26 56.34 2340.27 58.02C2341.29 59.7 2341.79 61.6067 2341.79 63.74C2341.79 65.8733 2341.29 67.78 2340.27 69.46C2339.26 71.14 2337.86 72.46 2336.07 73.42C2334.29 74.3533 2332.26 74.82 2329.99 74.82ZM2329.99 69.7C2331.59 69.7 2332.9 69.1667 2333.91 68.1C2334.95 67.0067 2335.47 65.5533 2335.47 63.74C2335.47 61.9267 2334.95 60.4867 2333.91 59.42C2332.9 58.3267 2331.59 57.78 2329.99 57.78C2328.39 57.78 2327.07 58.3267 2326.03 59.42C2324.99 60.4867 2324.47 61.9267 2324.47 63.74C2324.47 65.5533 2324.99 67.0067 2326.03 68.1C2327.07 69.1667 2328.39 69.7 2329.99 69.7ZM2358.77 52.66C2360.77 52.66 2362.58 53.1267 2364.21 54.06C2365.86 54.9667 2367.15 56.26 2368.09 57.94C2369.02 59.5933 2369.49 61.5267 2369.49 63.74C2369.49 65.9533 2369.02 67.9 2368.09 69.58C2367.15 71.2333 2365.86 72.5267 2364.21 73.46C2362.58 74.3667 2360.77 74.82 2358.77 74.82C2356.02 74.82 2353.86 73.9533 2352.29 72.22V82.26H2346.05V52.98H2352.01V55.46C2353.55 53.5933 2355.81 52.66 2358.77 52.66ZM2357.69 69.7C2359.29 69.7 2360.59 69.1667 2361.61 68.1C2362.65 67.0067 2363.17 65.5533 2363.17 63.74C2363.17 61.9267 2362.65 60.4867 2361.61 59.42C2360.59 58.3267 2359.29 57.78 2357.69 57.78C2356.09 57.78 2354.77 58.3267 2353.73 59.42C2352.71 60.4867 2352.21 61.9267 2352.21 63.74C2352.21 65.5533 2352.71 67.0067 2353.73 68.1C2354.77 69.1667 2356.09 69.7 2357.69 69.7ZM2383.94 74.82C2381.67 74.82 2379.63 74.3533 2377.82 73.42C2376.03 72.46 2374.63 71.14 2373.62 69.46C2372.61 67.78 2372.1 65.8733 2372.1 63.74C2372.1 61.6067 2372.61 59.7 2373.62 58.02C2374.63 56.34 2376.03 55.0333 2377.82 54.1C2379.63 53.14 2381.67 52.66 2383.94 52.66C2386.21 52.66 2388.23 53.14 2390.02 54.1C2391.81 55.0333 2393.21 56.34 2394.22 58.02C2395.23 59.7 2395.74 61.6067 2395.74 63.74C2395.74 65.8733 2395.23 67.78 2394.22 69.46C2393.21 71.14 2391.81 72.46 2390.02 73.42C2388.23 74.3533 2386.21 74.82 2383.94 74.82ZM2383.94 69.7C2385.54 69.7 2386.85 69.1667 2387.86 68.1C2388.9 67.0067 2389.42 65.5533 2389.42 63.74C2389.42 61.9267 2388.9 60.4867 2387.86 59.42C2386.85 58.3267 2385.54 57.78 2383.94 57.78C2382.34 57.78 2381.02 58.3267 2379.98 59.42C2378.94 60.4867 2378.42 61.9267 2378.42 63.74C2378.42 65.5533 2378.94 67.0067 2379.98 68.1C2381.02 69.1667 2382.34 69.7 2383.94 69.7ZM2423.84 69.38V79.14H2418.04V74.5H2402.92V79.14H2397.12V69.38H2398C2399.33 69.3533 2400.25 68.5667 2400.76 67.02C2401.27 65.4733 2401.59 63.2733 2401.72 60.42L2402 52.98H2420.76V69.38H2423.84ZM2407.36 60.86C2407.28 63.0467 2407.11 64.8333 2406.84 66.22C2406.6 67.6067 2406.13 68.66 2405.44 69.38H2414.52V58.1H2407.48L2407.36 60.86ZM2474.62 68.62H2470.06V74.5H2463.74V68.62H2448.66V64.26L2461.86 46.5H2468.66L2456.42 63.34H2463.94V58.1H2470.06V63.34H2474.62V68.62ZM2497.4 69.22V74.5H2476.24V70.3L2487.04 60.1C2488.19 59.0067 2488.96 58.0733 2489.36 57.3C2489.76 56.5 2489.96 55.7133 2489.96 54.94C2489.96 53.82 2489.58 52.9667 2488.8 52.38C2488.06 51.7667 2486.95 51.46 2485.48 51.46C2484.26 51.46 2483.15 51.7 2482.16 52.18C2481.18 52.6333 2480.35 53.3267 2479.68 54.26L2474.96 51.22C2476.06 49.5933 2477.56 48.3267 2479.48 47.42C2481.4 46.4867 2483.6 46.02 2486.08 46.02C2488.16 46.02 2489.98 46.3667 2491.52 47.06C2493.1 47.7267 2494.31 48.6867 2495.16 49.94C2496.04 51.1667 2496.48 52.62 2496.48 54.3C2496.48 55.82 2496.16 57.2467 2495.52 58.58C2494.88 59.9133 2493.64 61.4333 2491.8 63.14L2485.36 69.22H2497.4ZM2512 74.98C2509.68 74.98 2507.61 74.4067 2505.8 73.26C2503.98 72.1133 2502.56 70.46 2501.52 68.3C2500.5 66.1133 2500 63.5133 2500 60.5C2500 57.4867 2500.5 54.9 2501.52 52.74C2502.56 50.5533 2503.98 48.8867 2505.8 47.74C2507.61 46.5933 2509.68 46.02 2512 46.02C2514.32 46.02 2516.38 46.5933 2518.2 47.74C2520.01 48.8867 2521.42 50.5533 2522.44 52.74C2523.48 54.9 2524 57.4867 2524 60.5C2524 63.5133 2523.48 66.1133 2522.44 68.3C2521.42 70.46 2520.01 72.1133 2518.2 73.26C2516.38 74.4067 2514.32 74.98 2512 74.98ZM2512 69.5C2513.7 69.5 2515.04 68.7667 2516 67.3C2516.98 65.8333 2517.48 63.5667 2517.48 60.5C2517.48 57.4333 2516.98 55.1667 2516 53.7C2515.04 52.2333 2513.7 51.5 2512 51.5C2510.32 51.5 2508.98 52.2333 2508 53.7C2507.04 55.1667 2506.56 57.4333 2506.56 60.5C2506.56 63.5667 2507.04 65.8333 2508 67.3C2508.98 68.7667 2510.32 69.5 2512 69.5ZM2549.39 66.34H2546.15V74.5H2539.91V52.98H2546.15V61.34H2549.51L2555.35 52.98H2561.99L2554.47 63.3L2562.51 74.5H2555.15L2549.39 66.34ZM2586.58 74.5V61.62L2580.14 72.42H2577.5L2571.22 61.58V74.5H2565.58V52.98H2572.1L2578.98 65.42L2586.3 52.98H2592.14L2592.22 74.5H2586.58Z" fill="#222222"/>
<rect x="1858" y="10" width="795" height="100" rx="11" stroke="#222222" stroke-width="4"/>
<rect y="144" width="486" height="120" rx="16" fill="#FDD900"/>
<path d="M68.46 218.5L68.42 201.74L60.18 215.54H57.3L49.06 202.06V218.5H42.98V190.5H48.34L58.82 207.9L69.14 190.5H74.5L74.54 218.5H68.46ZM91.0956 218.82C88.829 218.82 86.789 218.353 84.9756 217.42C83.189 216.46 81.789 215.14 80.7756 213.46C79.7623 211.78 79.2556 209.873 79.2556 207.74C79.2556 205.607 79.7623 203.7 80.7756 202.02C81.789 200.34 83.189 199.033 84.9756 198.1C86.789 197.14 88.829 196.66 91.0956 196.66C93.3623 196.66 95.389 197.14 97.1756 198.1C98.9623 199.033 100.362 200.34 101.376 202.02C102.389 203.7 102.896 205.607 102.896 207.74C102.896 209.873 102.389 211.78 101.376 213.46C100.362 215.14 98.9623 216.46 97.1756 217.42C95.389 218.353 93.3623 218.82 91.0956 218.82ZM91.0956 213.7C92.6956 213.7 94.0023 213.167 95.0156 212.1C96.0556 211.007 96.5756 209.553 96.5756 207.74C96.5756 205.927 96.0556 204.487 95.0156 203.42C94.0023 202.327 92.6956 201.78 91.0956 201.78C89.4956 201.78 88.1756 202.327 87.1356 203.42C86.0956 204.487 85.5756 205.927 85.5756 207.74C85.5756 209.553 86.0956 211.007 87.1356 212.1C88.1756 213.167 89.4956 213.7 91.0956 213.7ZM117.428 218.82C115.134 218.82 113.068 218.353 111.228 217.42C109.414 216.46 107.988 215.14 106.948 213.46C105.934 211.78 105.428 209.873 105.428 207.74C105.428 205.607 105.934 203.7 106.948 202.02C107.988 200.34 109.414 199.033 111.228 198.1C113.068 197.14 115.134 196.66 117.428 196.66C119.694 196.66 121.668 197.14 123.348 198.1C125.054 199.033 126.294 200.38 127.068 202.14L122.228 204.74C121.108 202.767 119.494 201.78 117.388 201.78C115.761 201.78 114.414 202.313 113.348 203.38C112.281 204.447 111.748 205.9 111.748 207.74C111.748 209.58 112.281 211.033 113.348 212.1C114.414 213.167 115.761 213.7 117.388 213.7C119.521 213.7 121.134 212.713 122.228 210.74L127.068 213.38C126.294 215.087 125.054 216.42 123.348 217.38C121.668 218.34 119.694 218.82 117.428 218.82ZM140.339 210.34H137.099V218.5H130.859V196.98H137.099V205.34H140.459L146.299 196.98H152.939L145.419 207.3L153.459 218.5H146.099L140.339 210.34ZM172.963 207.26C175.497 208.113 176.763 209.82 176.763 212.38C176.763 214.327 176.03 215.833 174.563 216.9C173.097 217.967 170.91 218.5 168.003 218.5H156.523V196.98H167.523C170.217 196.98 172.323 197.473 173.843 198.46C175.363 199.42 176.123 200.78 176.123 202.54C176.123 203.607 175.843 204.553 175.283 205.38C174.75 206.18 173.977 206.807 172.963 207.26ZM162.243 205.82H166.963C169.15 205.82 170.243 205.047 170.243 203.5C170.243 201.98 169.15 201.22 166.963 201.22H162.243V205.82ZM167.483 214.26C169.777 214.26 170.923 213.473 170.923 211.9C170.923 211.073 170.657 210.473 170.123 210.1C169.59 209.7 168.75 209.5 167.603 209.5H162.243V214.26H167.483ZM189.766 196.66C193.1 196.66 195.66 197.46 197.446 199.06C199.233 200.633 200.126 203.02 200.126 206.22V218.5H194.286V215.82C193.113 217.82 190.926 218.82 187.726 218.82C186.073 218.82 184.633 218.54 183.406 217.98C182.206 217.42 181.286 216.647 180.646 215.66C180.006 214.673 179.686 213.553 179.686 212.3C179.686 210.3 180.433 208.727 181.926 207.58C183.446 206.433 185.78 205.86 188.926 205.86H193.886C193.886 204.5 193.473 203.46 192.646 202.74C191.82 201.993 190.58 201.62 188.926 201.62C187.78 201.62 186.646 201.807 185.526 202.18C184.433 202.527 183.5 203.007 182.726 203.62L180.486 199.26C181.66 198.433 183.06 197.793 184.686 197.34C186.34 196.887 188.033 196.66 189.766 196.66ZM189.286 214.62C190.353 214.62 191.3 214.38 192.126 213.9C192.953 213.393 193.54 212.66 193.886 211.7V209.5H189.606C187.046 209.5 185.766 210.34 185.766 212.02C185.766 212.82 186.073 213.46 186.686 213.94C187.326 214.393 188.193 214.62 189.286 214.62ZM226.235 190.5V218.5H219.755V195.7H214.155V190.5H226.235ZM243.099 218.98C240.779 218.98 238.712 218.407 236.899 217.26C235.086 216.113 233.659 214.46 232.619 212.3C231.606 210.113 231.099 207.513 231.099 204.5C231.099 201.487 231.606 198.9 232.619 196.74C233.659 194.553 235.086 192.887 236.899 191.74C238.712 190.593 240.779 190.02 243.099 190.02C245.419 190.02 247.486 190.593 249.299 191.74C251.112 192.887 252.526 194.553 253.539 196.74C254.579 198.9 255.099 201.487 255.099 204.5C255.099 207.513 254.579 210.113 253.539 212.3C252.526 214.46 251.112 216.113 249.299 217.26C247.486 218.407 245.419 218.98 243.099 218.98ZM243.099 213.5C244.806 213.5 246.139 212.767 247.099 211.3C248.086 209.833 248.579 207.567 248.579 204.5C248.579 201.433 248.086 199.167 247.099 197.7C246.139 196.233 244.806 195.5 243.099 195.5C241.419 195.5 240.086 196.233 239.099 197.7C238.139 199.167 237.659 201.433 237.659 204.5C237.659 207.567 238.139 209.833 239.099 211.3C240.086 212.767 241.419 213.5 243.099 213.5ZM280.496 210.34H277.256V218.5H271.016V196.98H277.256V205.34H280.616L286.456 196.98H293.096L285.576 207.3L293.616 218.5H286.256L280.496 210.34ZM317.68 218.5V205.62L311.24 216.42H308.6L302.32 205.58V218.5H296.68V196.98H303.2L310.08 209.42L317.4 196.98H323.24L323.32 218.5H317.68Z" fill="#222222"/>
<path d="M446.5 204L421.5 189.566V218.434L446.5 204ZM355.5 206.5H424V201.5H355.5V206.5Z" fill="#222222"/>
<rect x="10" y="154" width="466" height="100" rx="11" stroke="#222222" stroke-width="4"/>
<rect x="1338" width="486" height="120" rx="16" fill="#FDD900"/>
<path d="M1406.46 74.5L1406.42 57.74L1398.18 71.54H1395.3L1387.06 58.06V74.5H1380.98V46.5H1386.34L1396.82 63.9L1407.14 46.5H1412.5L1412.54 74.5H1406.46ZM1429.1 74.82C1426.83 74.82 1424.79 74.3533 1422.98 73.42C1421.19 72.46 1419.79 71.14 1418.78 69.46C1417.76 67.78 1417.26 65.8733 1417.26 63.74C1417.26 61.6067 1417.76 59.7 1418.78 58.02C1419.79 56.34 1421.19 55.0333 1422.98 54.1C1424.79 53.14 1426.83 52.66 1429.1 52.66C1431.36 52.66 1433.39 53.14 1435.18 54.1C1436.96 55.0333 1438.36 56.34 1439.38 58.02C1440.39 59.7 1440.9 61.6067 1440.9 63.74C1440.9 65.8733 1440.39 67.78 1439.38 69.46C1438.36 71.14 1436.96 72.46 1435.18 73.42C1433.39 74.3533 1431.36 74.82 1429.1 74.82ZM1429.1 69.7C1430.7 69.7 1432 69.1667 1433.02 68.1C1434.06 67.0067 1434.58 65.5533 1434.58 63.74C1434.58 61.9267 1434.06 60.4867 1433.02 59.42C1432 58.3267 1430.7 57.78 1429.1 57.78C1427.5 57.78 1426.18 58.3267 1425.14 59.42C1424.1 60.4867 1423.58 61.9267 1423.58 63.74C1423.58 65.5533 1424.1 67.0067 1425.14 68.1C1426.18 69.1667 1427.5 69.7 1429.1 69.7ZM1455.43 74.82C1453.13 74.82 1451.07 74.3533 1449.23 73.42C1447.41 72.46 1445.99 71.14 1444.95 69.46C1443.93 67.78 1443.43 65.8733 1443.43 63.74C1443.43 61.6067 1443.93 59.7 1444.95 58.02C1445.99 56.34 1447.41 55.0333 1449.23 54.1C1451.07 53.14 1453.13 52.66 1455.43 52.66C1457.69 52.66 1459.67 53.14 1461.35 54.1C1463.05 55.0333 1464.29 56.38 1465.07 58.14L1460.23 60.74C1459.11 58.7667 1457.49 57.78 1455.39 57.78C1453.76 57.78 1452.41 58.3133 1451.35 59.38C1450.28 60.4467 1449.75 61.9 1449.75 63.74C1449.75 65.58 1450.28 67.0333 1451.35 68.1C1452.41 69.1667 1453.76 69.7 1455.39 69.7C1457.52 69.7 1459.13 68.7133 1460.23 66.74L1465.07 69.38C1464.29 71.0867 1463.05 72.42 1461.35 73.38C1459.67 74.34 1457.69 74.82 1455.43 74.82ZM1478.34 66.34H1475.1V74.5H1468.86V52.98H1475.1V61.34H1478.46L1484.3 52.98H1490.94L1483.42 63.3L1491.46 74.5H1484.1L1478.34 66.34ZM1510.96 63.26C1513.5 64.1133 1514.76 65.82 1514.76 68.38C1514.76 70.3267 1514.03 71.8333 1512.56 72.9C1511.1 73.9667 1508.91 74.5 1506 74.5H1494.52V52.98H1505.52C1508.22 52.98 1510.32 53.4733 1511.84 54.46C1513.36 55.42 1514.12 56.78 1514.12 58.54C1514.12 59.6067 1513.84 60.5533 1513.28 61.38C1512.75 62.18 1511.98 62.8067 1510.96 63.26ZM1500.24 61.82H1504.96C1507.15 61.82 1508.24 61.0467 1508.24 59.5C1508.24 57.98 1507.15 57.22 1504.96 57.22H1500.24V61.82ZM1505.48 70.26C1507.78 70.26 1508.92 69.4733 1508.92 67.9C1508.92 67.0733 1508.66 66.4733 1508.12 66.1C1507.59 65.7 1506.75 65.5 1505.6 65.5H1500.24V70.26H1505.48ZM1527.77 52.66C1531.1 52.66 1533.66 53.46 1535.45 55.06C1537.23 56.6333 1538.13 59.02 1538.13 62.22V74.5H1532.29V71.82C1531.11 73.82 1528.93 74.82 1525.73 74.82C1524.07 74.82 1522.63 74.54 1521.41 73.98C1520.21 73.42 1519.29 72.6467 1518.65 71.66C1518.01 70.6733 1517.69 69.5533 1517.69 68.3C1517.69 66.3 1518.43 64.7267 1519.93 63.58C1521.45 62.4333 1523.78 61.86 1526.93 61.86H1531.89C1531.89 60.5 1531.47 59.46 1530.65 58.74C1529.82 57.9933 1528.58 57.62 1526.93 57.62C1525.78 57.62 1524.65 57.8067 1523.53 58.18C1522.43 58.5267 1521.5 59.0067 1520.73 59.62L1518.49 55.26C1519.66 54.4333 1521.06 53.7933 1522.69 53.34C1524.34 52.8867 1526.03 52.66 1527.77 52.66ZM1527.29 70.62C1528.35 70.62 1529.3 70.38 1530.13 69.9C1530.95 69.3933 1531.54 68.66 1531.89 67.7V65.5H1527.61C1525.05 65.5 1523.77 66.34 1523.77 68.02C1523.77 68.82 1524.07 69.46 1524.69 69.94C1525.33 70.3933 1526.19 70.62 1527.29 70.62ZM1564.24 46.5V74.5H1557.75V51.7H1552.16V46.5H1564.24ZM1581.1 74.98C1578.78 74.98 1576.71 74.4067 1574.9 73.26C1573.09 72.1133 1571.66 70.46 1570.62 68.3C1569.61 66.1133 1569.1 63.5133 1569.1 60.5C1569.1 57.4867 1569.61 54.9 1570.62 52.74C1571.66 50.5533 1573.09 48.8867 1574.9 47.74C1576.71 46.5933 1578.78 46.02 1581.1 46.02C1583.42 46.02 1585.49 46.5933 1587.3 47.74C1589.11 48.8867 1590.53 50.5533 1591.54 52.74C1592.58 54.9 1593.1 57.4867 1593.1 60.5C1593.1 63.5133 1592.58 66.1133 1591.54 68.3C1590.53 70.46 1589.11 72.1133 1587.3 73.26C1585.49 74.4067 1583.42 74.98 1581.1 74.98ZM1581.1 69.5C1582.81 69.5 1584.14 68.7667 1585.1 67.3C1586.09 65.8333 1586.58 63.5667 1586.58 60.5C1586.58 57.4333 1586.09 55.1667 1585.1 53.7C1584.14 52.2333 1582.81 51.5 1581.1 51.5C1579.42 51.5 1578.09 52.2333 1577.1 53.7C1576.14 55.1667 1575.66 57.4333 1575.66 60.5C1575.66 63.5667 1576.14 65.8333 1577.1 67.3C1578.09 68.7667 1579.42 69.5 1581.1 69.5ZM1618.5 66.34H1615.26V74.5H1609.02V52.98H1615.26V61.34H1618.62L1624.46 52.98H1631.1L1623.58 63.3L1631.62 74.5H1624.26L1618.5 66.34ZM1655.68 74.5V61.62L1649.24 72.42H1646.6L1640.32 61.58V74.5H1634.68V52.98H1641.2L1648.08 65.42L1655.4 52.98H1661.24L1661.32 74.5H1655.68Z" fill="#222222"/>
<path d="M1784.5 60L1759.5 45.5662V74.4338L1784.5 60ZM1693.5 62.5L1762 62.5V57.5L1693.5 57.5V62.5Z" fill="#222222"/>
<rect x="1348" y="10" width="466" height="100" rx="11" stroke="#222222" stroke-width="4"/>
<rect x="796" width="518" height="120" rx="16" fill="#FDD900"/>
<path d="M863 46.5V74.5H856.56V51.78H843.92V74.5H837.48V46.5H863ZM890.381 63.82C890.381 63.9 890.341 64.46 890.261 65.5H873.981C874.274 66.8333 874.968 67.8867 876.061 68.66C877.154 69.4333 878.514 69.82 880.141 69.82C881.261 69.82 882.248 69.66 883.101 69.34C883.981 68.9933 884.794 68.46 885.541 67.74L888.861 71.34C886.834 73.66 883.874 74.82 879.981 74.82C877.554 74.82 875.408 74.3533 873.541 73.42C871.674 72.46 870.234 71.14 869.221 69.46C868.208 67.78 867.701 65.8733 867.701 63.74C867.701 61.6333 868.194 59.74 869.181 58.06C870.194 56.3533 871.568 55.0333 873.301 54.1C875.061 53.14 877.021 52.66 879.181 52.66C881.288 52.66 883.194 53.1133 884.901 54.02C886.608 54.9267 887.941 56.2333 888.901 57.94C889.888 59.62 890.381 61.58 890.381 63.82ZM879.221 57.38C877.808 57.38 876.621 57.78 875.661 58.58C874.701 59.38 874.114 60.4733 873.901 61.86H884.501C884.288 60.5 883.701 59.42 882.741 58.62C881.781 57.7933 880.608 57.38 879.221 57.38ZM907.844 52.66C909.844 52.66 911.657 53.1267 913.284 54.06C914.937 54.9667 916.231 56.26 917.164 57.94C918.097 59.5933 918.564 61.5267 918.564 63.74C918.564 65.9533 918.097 67.9 917.164 69.58C916.231 71.2333 914.937 72.5267 913.284 73.46C911.657 74.3667 909.844 74.82 907.844 74.82C905.097 74.82 902.937 73.9533 901.364 72.22V82.26H895.124V52.98H901.084V55.46C902.631 53.5933 904.884 52.66 907.844 52.66ZM906.764 69.7C908.364 69.7 909.671 69.1667 910.684 68.1C911.724 67.0067 912.244 65.5533 912.244 63.74C912.244 61.9267 911.724 60.4867 910.684 59.42C909.671 58.3267 908.364 57.78 906.764 57.78C905.164 57.78 903.844 58.3267 902.804 59.42C901.791 60.4867 901.284 61.9267 901.284 63.74C901.284 65.5533 901.791 67.0067 902.804 68.1C903.844 69.1667 905.164 69.7 906.764 69.7ZM943.938 74.5V61.62L937.498 72.42H934.858L928.578 61.58V74.5H922.938V52.98H929.458L936.338 65.42L943.658 52.98H949.498L949.578 74.5H943.938ZM967.195 59.86C969.995 59.8867 972.141 60.5267 973.635 61.78C975.128 63.0067 975.875 64.7533 975.875 67.02C975.875 69.3933 975.035 71.2467 973.355 72.58C971.701 73.8867 969.368 74.54 966.355 74.54L955.555 74.5V52.98H961.755V59.86H967.195ZM965.795 70.1C966.995 70.1267 967.915 69.8733 968.555 69.34C969.195 68.8067 969.515 68.0067 969.515 66.94C969.515 65.9 969.195 65.14 968.555 64.66C967.941 64.18 967.021 63.9267 965.795 63.9L961.755 63.86V70.1H965.795ZM1000.46 46.5V74.5H993.982V51.7H988.382V46.5H1000.46ZM1030.97 68.62H1026.41V74.5H1020.09V68.62H1005.01V64.26L1018.21 46.5H1025.01L1012.77 63.34H1020.29V58.1H1026.41V63.34H1030.97V68.62ZM1058.54 68.62H1053.98V74.5H1047.66V68.62H1032.58V64.26L1045.78 46.5H1052.58L1040.34 63.34H1047.86V58.1H1053.98V63.34H1058.54V68.62ZM1072.48 74.98C1070.16 74.98 1068.1 74.4067 1066.28 73.26C1064.47 72.1133 1063.04 70.46 1062 68.3C1060.99 66.1133 1060.48 63.5133 1060.48 60.5C1060.48 57.4867 1060.99 54.9 1062 52.74C1063.04 50.5533 1064.47 48.8867 1066.28 47.74C1068.1 46.5933 1070.16 46.02 1072.48 46.02C1074.8 46.02 1076.87 46.5933 1078.68 47.74C1080.5 48.8867 1081.91 50.5533 1082.92 52.74C1083.96 54.9 1084.48 57.4867 1084.48 60.5C1084.48 63.5133 1083.96 66.1133 1082.92 68.3C1081.91 70.46 1080.5 72.1133 1078.68 73.26C1076.87 74.4067 1074.8 74.98 1072.48 74.98ZM1072.48 69.5C1074.19 69.5 1075.52 68.7667 1076.48 67.3C1077.47 65.8333 1077.96 63.5667 1077.96 60.5C1077.96 57.4333 1077.47 55.1667 1076.48 53.7C1075.52 52.2333 1074.19 51.5 1072.48 51.5C1070.8 51.5 1069.47 52.2333 1068.48 53.7C1067.52 55.1667 1067.04 57.4333 1067.04 60.5C1067.04 63.5667 1067.52 65.8333 1068.48 67.3C1069.47 68.7667 1070.8 69.5 1072.48 69.5ZM1109.88 66.34H1106.64V74.5H1100.4V52.98H1106.64V61.34H1110L1115.84 52.98H1122.48L1114.96 63.3L1123 74.5H1115.64L1109.88 66.34ZM1147.06 74.5V61.62L1140.62 72.42H1137.98L1131.7 61.58V74.5H1126.06V52.98H1132.58L1139.46 65.42L1146.78 52.98H1152.62L1152.7 74.5H1147.06Z" fill="#222222"/>
<path d="M1276 60L1251 45.5662V74.4338L1276 60ZM1185 62.5L1253.5 62.5V57.5L1185 57.5V62.5Z" fill="#222222"/>
<rect x="806" y="10" width="498" height="100" rx="11" stroke="#222222" stroke-width="4"/>
<rect x="2145" y="144" width="518" height="120" rx="16" fill="#FDD900"/>
<path d="M2212 190.5V218.5H2205.56V195.78H2192.92V218.5H2186.48V190.5H2212ZM2239.38 207.82C2239.38 207.9 2239.34 208.46 2239.26 209.5H2222.98C2223.27 210.833 2223.97 211.887 2225.06 212.66C2226.15 213.433 2227.51 213.82 2229.14 213.82C2230.26 213.82 2231.25 213.66 2232.1 213.34C2232.98 212.993 2233.79 212.46 2234.54 211.74L2237.86 215.34C2235.83 217.66 2232.87 218.82 2228.98 218.82C2226.55 218.82 2224.41 218.353 2222.54 217.42C2220.67 216.46 2219.23 215.14 2218.22 213.46C2217.21 211.78 2216.7 209.873 2216.7 207.74C2216.7 205.633 2217.19 203.74 2218.18 202.06C2219.19 200.353 2220.57 199.033 2222.3 198.1C2224.06 197.14 2226.02 196.66 2228.18 196.66C2230.29 196.66 2232.19 197.113 2233.9 198.02C2235.61 198.927 2236.94 200.233 2237.9 201.94C2238.89 203.62 2239.38 205.58 2239.38 207.82ZM2228.22 201.38C2226.81 201.38 2225.62 201.78 2224.66 202.58C2223.7 203.38 2223.11 204.473 2222.9 205.86H2233.5C2233.29 204.5 2232.7 203.42 2231.74 202.62C2230.78 201.793 2229.61 201.38 2228.22 201.38ZM2256.84 196.66C2258.84 196.66 2260.66 197.127 2262.28 198.06C2263.94 198.967 2265.23 200.26 2266.16 201.94C2267.1 203.593 2267.56 205.527 2267.56 207.74C2267.56 209.953 2267.1 211.9 2266.16 213.58C2265.23 215.233 2263.94 216.527 2262.28 217.46C2260.66 218.367 2258.84 218.82 2256.84 218.82C2254.1 218.82 2251.94 217.953 2250.36 216.22V226.26H2244.12V196.98H2250.08V199.46C2251.63 197.593 2253.88 196.66 2256.84 196.66ZM2255.76 213.7C2257.36 213.7 2258.67 213.167 2259.68 212.1C2260.72 211.007 2261.24 209.553 2261.24 207.74C2261.24 205.927 2260.72 204.487 2259.68 203.42C2258.67 202.327 2257.36 201.78 2255.76 201.78C2254.16 201.78 2252.84 202.327 2251.8 203.42C2250.79 204.487 2250.28 205.927 2250.28 207.74C2250.28 209.553 2250.79 211.007 2251.8 212.1C2252.84 213.167 2254.16 213.7 2255.76 213.7ZM2292.94 218.5V205.62L2286.5 216.42H2283.86L2277.58 205.58V218.5H2271.94V196.98H2278.46L2285.34 209.42L2292.66 196.98H2298.5L2298.58 218.5H2292.94ZM2316.19 203.86C2318.99 203.887 2321.14 204.527 2322.63 205.78C2324.13 207.007 2324.87 208.753 2324.87 211.02C2324.87 213.393 2324.03 215.247 2322.35 216.58C2320.7 217.887 2318.37 218.54 2315.35 218.54L2304.55 218.5V196.98H2310.75V203.86H2316.19ZM2314.79 214.1C2315.99 214.127 2316.91 213.873 2317.55 213.34C2318.19 212.807 2318.51 212.007 2318.51 210.94C2318.51 209.9 2318.19 209.14 2317.55 208.66C2316.94 208.18 2316.02 207.927 2314.79 207.9L2310.75 207.86V214.1H2314.79ZM2349.46 190.5V218.5H2342.98V195.7H2337.38V190.5H2349.46ZM2379.97 212.62H2375.41V218.5H2369.09V212.62H2354.01V208.26L2367.21 190.5H2374.01L2361.77 207.34H2369.29V202.1H2375.41V207.34H2379.97V212.62ZM2407.54 212.62H2402.98V218.5H2396.66V212.62H2381.58V208.26L2394.78 190.5H2401.58L2389.34 207.34H2396.86V202.1H2402.98V207.34H2407.54V212.62ZM2421.48 218.98C2419.16 218.98 2417.1 218.407 2415.28 217.26C2413.47 216.113 2412.04 214.46 2411 212.3C2409.99 210.113 2409.48 207.513 2409.48 204.5C2409.48 201.487 2409.99 198.9 2411 196.74C2412.04 194.553 2413.47 192.887 2415.28 191.74C2417.1 190.593 2419.16 190.02 2421.48 190.02C2423.8 190.02 2425.87 190.593 2427.68 191.74C2429.5 192.887 2430.91 194.553 2431.92 196.74C2432.96 198.9 2433.48 201.487 2433.48 204.5C2433.48 207.513 2432.96 210.113 2431.92 212.3C2430.91 214.46 2429.5 216.113 2427.68 217.26C2425.87 218.407 2423.8 218.98 2421.48 218.98ZM2421.48 213.5C2423.19 213.5 2424.52 212.767 2425.48 211.3C2426.47 209.833 2426.96 207.567 2426.96 204.5C2426.96 201.433 2426.47 199.167 2425.48 197.7C2424.52 196.233 2423.19 195.5 2421.48 195.5C2419.8 195.5 2418.47 196.233 2417.48 197.7C2416.52 199.167 2416.04 201.433 2416.04 204.5C2416.04 207.567 2416.52 209.833 2417.48 211.3C2418.47 212.767 2419.8 213.5 2421.48 213.5ZM2458.88 210.34H2455.64V218.5H2449.4V196.98H2455.64V205.34H2459L2464.84 196.98H2471.48L2463.96 207.3L2472 218.5H2464.64L2458.88 210.34ZM2496.06 218.5V205.62L2489.62 216.42H2486.98L2480.7 205.58V218.5H2475.06V196.98H2481.58L2488.46 209.42L2495.78 196.98H2501.62L2501.7 218.5H2496.06Z" fill="#222222"/>
<path d="M2625 204L2600 189.566V218.434L2625 204ZM2534 206.5H2602.5V201.5H2534V206.5Z" fill="#222222"/>
<rect x="2155" y="154" width="498" height="100" rx="11" stroke="#222222" stroke-width="4"/>
</svg>
