<svg width="239" height="24" viewBox="0 0 239 24" fill="none" xmlns="http://www.w3.org/2000/svg">
<path d="M20.592 23L20.56 11.128L14.8 20.792H11.984L6.224 11.384V23H0.4V0.599998H5.616L13.488 13.528L21.168 0.599998H26.384L26.448 23H20.592ZM42.2205 23.448C39.8525 23.448 37.7192 22.9467 35.8205 21.944C33.9432 20.9413 32.4605 19.5547 31.3725 17.784C30.3058 16.0133 29.7725 14.0187 29.7725 11.8C29.7725 9.58133 30.3058 7.58667 31.3725 5.816C32.4605 4.04533 33.9432 2.65867 35.8205 1.656C37.7192 0.653332 39.8525 0.151999 42.2205 0.151999C44.5885 0.151999 46.7112 0.653332 48.5885 1.656C50.4872 2.65867 51.9698 4.04533 53.0365 5.816C54.1245 7.58667 54.6685 9.58133 54.6685 11.8C54.6685 14.0187 54.1245 16.0133 53.0365 17.784C51.9698 19.5547 50.4872 20.9413 48.5885 21.944C46.7112 22.9467 44.5885 23.448 42.2205 23.448ZM42.2205 18.2C43.3512 18.2 44.3752 17.9333 45.2925 17.4C46.2098 16.8667 46.9352 16.12 47.4685 15.16C48.0018 14.1787 48.2685 13.0587 48.2685 11.8C48.2685 10.5413 48.0018 9.432 47.4685 8.472C46.9352 7.49067 46.2098 6.73333 45.2925 6.2C44.3752 5.66667 43.3512 5.4 42.2205 5.4C41.0898 5.4 40.0658 5.66667 39.1485 6.2C38.2312 6.73333 37.5058 7.49067 36.9725 8.472C36.4392 9.432 36.1725 10.5413 36.1725 11.8C36.1725 13.0587 36.4392 14.1787 36.9725 15.16C37.5058 16.12 38.2312 16.8667 39.1485 17.4C40.0658 17.9333 41.0898 18.2 42.2205 18.2ZM79.3683 0.599998V23H73.0323V14.264H64.3923V23H58.0563V0.599998H64.3923V9.016H73.0323V0.599998H79.3683ZM102.229 5.624H95.3813V23H89.1413V5.624H82.2613V0.599998H102.229V5.624ZM115.75 23.448C113.403 23.448 111.291 22.9573 109.414 21.976C107.558 20.9733 106.096 19.5867 105.03 17.816C103.963 16.0453 103.43 14.04 103.43 11.8C103.43 9.56 103.963 7.55467 105.03 5.784C106.096 4.01333 107.558 2.63733 109.414 1.656C111.291 0.653332 113.403 0.151999 115.75 0.151999C117.798 0.151999 119.643 0.514666 121.286 1.24C122.928 1.96533 124.294 3.01067 125.382 4.376L121.35 8.024C119.899 6.27467 118.139 5.4 116.07 5.4C114.854 5.4 113.766 5.66667 112.806 6.2C111.867 6.73333 111.131 7.49067 110.598 8.472C110.086 9.432 109.83 10.5413 109.83 11.8C109.83 13.0587 110.086 14.1787 110.598 15.16C111.131 16.12 111.867 16.8667 112.806 17.4C113.766 17.9333 114.854 18.2 116.07 18.2C118.139 18.2 119.899 17.3253 121.35 15.576L125.382 19.224C124.294 20.5893 122.928 21.6347 121.286 22.36C119.643 23.0853 117.798 23.448 115.75 23.448ZM146.228 18.104V23H128.244V0.599998H145.812V5.496H134.516V9.272H144.468V14.008H134.516V18.104H146.228ZM160.078 0.599998C162.104 0.599998 163.864 0.941332 165.358 1.624C166.851 2.28533 168.003 3.24533 168.814 4.504C169.624 5.74133 170.03 7.20267 170.03 8.888C170.03 10.5733 169.624 12.0347 168.814 13.272C168.003 14.5093 166.851 15.4693 165.358 16.152C163.864 16.8133 162.104 17.144 160.078 17.144H156.174V23H149.838V0.599998H160.078ZM159.694 12.152C160.995 12.152 161.976 11.8747 162.638 11.32C163.299 10.744 163.63 9.93333 163.63 8.888C163.63 7.84267 163.299 7.032 162.638 6.456C161.976 5.88 160.995 5.592 159.694 5.592H156.174V12.152H159.694ZM183.14 0.599998C185.167 0.599998 186.927 0.941332 188.42 1.624C189.913 2.28533 191.065 3.24533 191.876 4.504C192.687 5.74133 193.092 7.20267 193.092 8.888C193.092 10.5733 192.687 12.0347 191.876 13.272C191.065 14.5093 189.913 15.4693 188.42 16.152C186.927 16.8133 185.167 17.144 183.14 17.144H179.236V23H172.9V0.599998H183.14ZM182.756 12.152C184.057 12.152 185.039 11.8747 185.7 11.32C186.361 10.744 186.692 9.93333 186.692 8.888C186.692 7.84267 186.361 7.032 185.7 6.456C185.039 5.88 184.057 5.592 182.756 5.592H179.236V12.152H182.756ZM210.294 18.648H200.822L199.062 23H192.598L202.486 0.599998H208.726L218.646 23H212.054L210.294 18.648ZM208.438 13.976L205.558 6.808L202.678 13.976H208.438ZM238.136 5.624H231.288V23H225.048V5.624H218.168V0.599998H238.136V5.624Z" fill="white"/>
</svg>
