<svg width="420" height="420" viewBox="0 0 420 420" fill="none" xmlns="http://www.w3.org/2000/svg">
<path d="M203.25 6.74978C206.978 3.02198 213.022 3.02198 216.75 6.74978L413.25 203.25C416.978 206.978 416.978 213.022 413.25 216.75L216.75 413.25C213.022 416.978 206.978 416.978 203.25 413.25L6.7498 216.75C3.022 213.022 3.022 206.978 6.7498 203.25L203.25 6.74978Z" fill="#FDD900"/>
<path fill-rule="evenodd" clip-rule="evenodd" d="M387.208 206.291L213.375 32.4577C211.511 30.5938 208.489 30.5938 206.625 32.4577L32.7916 206.291C30.9277 208.155 30.9277 211.177 32.7916 213.041L206.625 386.874C208.489 388.738 211.511 388.738 213.375 386.874L387.208 213.041C389.072 211.177 389.072 208.155 387.208 206.291ZM216.75 29.0828C213.022 25.355 206.978 25.355 203.25 29.0828L29.4167 202.916C25.6889 206.644 25.6889 212.688 29.4167 216.416L203.25 390.249C206.978 393.977 213.022 393.977 216.75 390.249L390.583 216.416C394.311 212.688 394.311 206.644 390.583 202.916L216.75 29.0828Z" fill="black"/>
<path d="M209.76 268.6C201.12 268.6 192.747 267.373 184.64 264.92C176.64 262.467 170.293 259.213 165.6 255.16L172.8 239C177.387 242.627 182.987 245.613 189.6 247.96C196.32 250.2 203.04 251.32 209.76 251.32C218.08 251.32 224.267 249.987 228.32 247.32C232.48 244.653 234.56 241.133 234.56 236.76C234.56 233.56 233.387 230.947 231.04 228.92C228.8 226.787 225.92 225.133 222.4 223.96C218.88 222.787 214.08 221.453 208 219.96C199.467 217.933 192.533 215.907 187.2 213.88C181.973 211.853 177.44 208.707 173.6 204.44C169.867 200.067 168 194.2 168 186.84C168 180.653 169.653 175.053 172.96 170.04C176.373 164.92 181.44 160.867 188.16 157.88C194.987 154.893 203.307 153.4 213.12 153.4C219.947 153.4 226.667 154.253 233.28 155.96C239.893 157.667 245.6 160.12 250.4 163.32L243.84 179.48C238.933 176.6 233.813 174.413 228.48 172.92C223.147 171.427 217.973 170.68 212.96 170.68C204.747 170.68 198.613 172.067 194.56 174.84C190.613 177.613 188.64 181.293 188.64 185.88C188.64 189.08 189.76 191.693 192 193.72C194.347 195.747 197.28 197.347 200.8 198.52C204.32 199.693 209.12 201.027 215.2 202.52C223.52 204.44 230.347 206.467 235.68 208.6C241.013 210.627 245.547 213.773 249.28 218.04C253.12 222.307 255.04 228.067 255.04 235.32C255.04 241.507 253.333 247.107 249.92 252.12C246.613 257.133 241.547 261.133 234.72 264.12C227.893 267.107 219.573 268.6 209.76 268.6Z" fill="#222222"/>
</svg>
