<svg width="260" height="260" viewBox="0 0 260 260" fill="none" xmlns="http://www.w3.org/2000/svg">
<rect width="260" height="260" rx="16" fill="#FDD900"/>
<path d="M109.784 161.4H62.984L54.056 183H30.152L75.08 82.2H98.12L143.192 183H118.712L109.784 161.4ZM102.44 143.688L86.456 105.096L70.472 143.688H102.44ZM184.927 104.376C196.927 104.376 206.143 107.256 212.575 113.016C219.007 118.68 222.223 127.272 222.223 138.792V183H201.199V173.352C196.975 180.552 189.103 184.152 177.583 184.152C171.631 184.152 166.447 183.144 162.031 181.128C157.711 179.112 154.399 176.328 152.095 172.776C149.791 169.224 148.639 165.192 148.639 160.68C148.639 153.48 151.327 147.816 156.703 143.688C162.175 139.56 170.575 137.496 181.903 137.496H199.759C199.759 132.6 198.271 128.856 195.295 126.264C192.319 123.576 187.855 122.232 181.903 122.232C177.775 122.232 173.695 122.904 169.663 124.248C165.727 125.496 162.367 127.224 159.583 129.432L151.519 113.736C155.743 110.76 160.783 108.456 166.639 106.824C172.591 105.192 178.687 104.376 184.927 104.376ZM183.199 169.032C187.039 169.032 190.447 168.168 193.423 166.44C196.399 164.616 198.511 161.976 199.759 158.52V150.6H184.351C175.135 150.6 170.527 153.624 170.527 159.672C170.527 162.552 171.631 164.856 173.839 166.584C176.143 168.216 179.263 169.032 183.199 169.032Z" fill="#222222"/>
<rect x="10" y="10" width="240" height="240" rx="11" stroke="#222222" stroke-width="4"/>
</svg>
